  0
SECTION
  2
BLOCKS
  0
ENDSEC
  0
SECTION
  2
ENTITIES
  0
LINE
  8
0
 10
64.4523
 20
-67.3995
 11
64.5047
 21
-67.3982
  0
LINE
  8
0
 10
64.5047
 20
-67.3982
 11
64.557
 21
-67.3959
  0
LINE
  8
0
 10
64.557
 20
-67.3959
 11
64.6093
 21
-67.3927
  0
LINE
  8
0
 10
64.6093
 20
-67.3927
 11
64.6615
 21
-67.3886
  0
LINE
  8
0
 10
64.6615
 20
-67.3886
 11
64.7136
 21
-67.3836
  0
LINE
  8
0
 10
64.7136
 20
-67.3836
 11
64.7656
 21
-67.3776
  0
LINE
  8
0
 10
64.7656
 20
-67.3776
 11
64.8175
 21
-67.3708
  0
LINE
  8
0
 10
64.8175
 20
-67.3708
 11
64.8693
 21
-67.3631
  0
LINE
  8
0
 10
64.8693
 20
-67.3631
 11
64.9209
 21
-67.3544
  0
LINE
  8
0
 10
64.9209
 20
-67.3544
 11
64.9724
 21
-67.3449
  0
LINE
  8
0
 10
64.9724
 20
-67.3449
 11
65.0237
 21
-67.3344
  0
LINE
  8
0
 10
65.0237
 20
-67.3344
 11
65.0748
 21
-67.3231
  0
LINE
  8
0
 10
65.0748
 20
-67.3231
 11
65.1258
 21
-67.3109
  0
LINE
  8
0
 10
65.1258
 20
-67.3109
 11
65.1765
 21
-67.2978
  0
LINE
  8
0
 10
65.1765
 20
-67.2978
 11
65.2269
 21
-67.2838
  0
LINE
  8
0
 10
65.2269
 20
-67.2838
 11
65.2771
 21
-67.2689
  0
LINE
  8
0
 10
65.2771
 20
-67.2689
 11
65.327
 21
-67.2532
  0
LINE
  8
0
 10
65.327
 20
-67.2532
 11
65.3767
 21
-67.2366
  0
LINE
  8
0
 10
65.3767
 20
-67.2366
 11
65.4261
 21
-67.2191
  0
LINE
  8
0
 10
65.4261
 20
-67.2191
 11
65.4751
 21
-67.2007
  0
LINE
  8
0
 10
65.4751
 20
-67.2007
 11
65.5238
 21
-67.1815
  0
LINE
  8
0
 10
65.5238
 20
-67.1815
 11
65.5722
 21
-67.1615
  0
LINE
  8
0
 10
65.5722
 20
-67.1615
 11
65.6202
 21
-67.1406
  0
LINE
  8
0
 10
65.6202
 20
-67.1406
 11
65.6678
 21
-67.1189
  0
LINE
  8
0
 10
65.6678
 20
-67.1189
 11
65.7151
 21
-67.0964
  0
LINE
  8
0
 10
65.7151
 20
-67.0964
 11
65.762
 21
-67.073
  0
LINE
  8
0
 10
65.762
 20
-67.073
 11
65.8084
 21
-67.0488
  0
LINE
  8
0
 10
65.8084
 20
-67.0488
 11
65.8544
 21
-67.0238
  0
LINE
  8
0
 10
65.8544
 20
-67.0238
 11
65.9
 21
-66.9981
  0
LINE
  8
0
 10
65.9
 20
-66.9981
 11
65.9451
 21
-66.9715
  0
LINE
  8
0
 10
65.9451
 20
-66.9715
 11
65.9898
 21
-66.9441
  0
LINE
  8
0
 10
65.9898
 20
-66.9441
 11
66.0339
 21
-66.916
  0
LINE
  8
0
 10
66.0339
 20
-66.916
 11
66.0776
 21
-66.8871
  0
LINE
  8
0
 10
66.0776
 20
-66.8871
 11
66.1207
 21
-66.8575
  0
LINE
  8
0
 10
66.1207
 20
-66.8575
 11
66.1633
 21
-66.827
  0
LINE
  8
0
 10
66.1633
 20
-66.827
 11
66.2054
 21
-66.7959
  0
LINE
  8
0
 10
66.2054
 20
-66.7959
 11
66.247
 21
-66.764
  0
LINE
  8
0
 10
66.247
 20
-66.764
 11
66.288
 21
-66.7314
  0
LINE
  8
0
 10
66.288
 20
-66.7314
 11
66.3284
 21
-66.6981
  0
LINE
  8
0
 10
66.3284
 20
-66.6981
 11
66.3682
 21
-66.6641
  0
LINE
  8
0
 10
66.3682
 20
-66.6641
 11
66.4074
 21
-66.6294
  0
LINE
  8
0
 10
66.4074
 20
-66.6294
 11
66.446
 21
-66.5941
  0
LINE
  8
0
 10
66.446
 20
-66.5941
 11
66.484
 21
-66.558
  0
LINE
  8
0
 10
66.484
 20
-66.558
 11
66.5213
 21
-66.5213
  0
LINE
  8
0
 10
66.5213
 20
-66.5213
 11
77.5213
 21
-55.5213
  0
LINE
  8
0
 10
77.5213
 20
-55.5213
 11
77.558
 21
-55.484
  0
LINE
  8
0
 10
77.558
 20
-55.484
 11
77.5941
 21
-55.446
  0
LINE
  8
0
 10
77.5941
 20
-55.446
 11
77.6294
 21
-55.4074
  0
LINE
  8
0
 10
77.6294
 20
-55.4074
 11
77.6641
 21
-55.3682
  0
LINE
  8
0
 10
77.6641
 20
-55.3682
 11
77.6981
 21
-55.3284
  0
LINE
  8
0
 10
77.6981
 20
-55.3284
 11
77.7314
 21
-55.2879
  0
LINE
  8
0
 10
77.7314
 20
-55.2879
 11
77.764
 21
-55.247
  0
LINE
  8
0
 10
77.764
 20
-55.247
 11
77.7959
 21
-55.2054
  0
LINE
  8
0
 10
77.7959
 20
-55.2054
 11
77.827
 21
-55.1633
  0
LINE
  8
0
 10
77.827
 20
-55.1633
 11
77.8575
 21
-55.1207
  0
LINE
  8
0
 10
77.8575
 20
-55.1207
 11
77.8871
 21
-55.0776
  0
LINE
  8
0
 10
77.8871
 20
-55.0776
 11
77.916
 21
-55.0339
  0
LINE
  8
0
 10
77.916
 20
-55.0339
 11
77.9441
 21
-54.9897
  0
LINE
  8
0
 10
77.9441
 20
-54.9897
 11
77.9715
 21
-54.9451
  0
LINE
  8
0
 10
77.9715
 20
-54.9451
 11
77.9981
 21
-54.9
  0
LINE
  8
0
 10
77.9981
 20
-54.9
 11
78.0238
 21
-54.8544
  0
LINE
  8
0
 10
78.0238
 20
-54.8544
 11
78.0488
 21
-54.8084
  0
LINE
  8
0
 10
78.0488
 20
-54.8084
 11
78.073
 21
-54.762
  0
LINE
  8
0
 10
78.073
 20
-54.762
 11
78.0964
 21
-54.7151
  0
LINE
  8
0
 10
78.0964
 20
-54.7151
 11
78.1189
 21
-54.6678
  0
LINE
  8
0
 10
78.1189
 20
-54.6678
 11
78.1406
 21
-54.6202
  0
LINE
  8
0
 10
78.1406
 20
-54.6202
 11
78.1615
 21
-54.5722
  0
LINE
  8
0
 10
78.1615
 20
-54.5722
 11
78.1815
 21
-54.5238
  0
LINE
  8
0
 10
78.1815
 20
-54.5238
 11
78.2007
 21
-54.4751
  0
LINE
  8
0
 10
78.2007
 20
-54.4751
 11
78.2191
 21
-54.4261
  0
LINE
  8
0
 10
78.2191
 20
-54.4261
 11
78.2366
 21
-54.3767
  0
LINE
  8
0
 10
78.2366
 20
-54.3767
 11
78.2532
 21
-54.327
  0
LINE
  8
0
 10
78.2532
 20
-54.327
 11
78.2689
 21
-54.2771
  0
LINE
  8
0
 10
78.2689
 20
-54.2771
 11
78.2838
 21
-54.2269
  0
LINE
  8
0
 10
78.2838
 20
-54.2269
 11
78.2978
 21
-54.1765
  0
LINE
  8
0
 10
78.2978
 20
-54.1765
 11
78.3109
 21
-54.1258
  0
LINE
  8
0
 10
78.3109
 20
-54.1258
 11
78.3231
 21
-54.0748
  0
LINE
  8
0
 10
78.3231
 20
-54.0748
 11
78.3344
 21
-54.0237
  0
LINE
  8
0
 10
78.3344
 20
-54.0237
 11
78.3449
 21
-53.9724
  0
LINE
  8
0
 10
78.3449
 20
-53.9724
 11
78.3544
 21
-53.9209
  0
LINE
  8
0
 10
78.3544
 20
-53.9209
 11
78.3631
 21
-53.8693
  0
LINE
  8
0
 10
78.3631
 20
-53.8693
 11
78.3708
 21
-53.8175
  0
LINE
  8
0
 10
78.3708
 20
-53.8175
 11
78.3776
 21
-53.7656
  0
LINE
  8
0
 10
78.3776
 20
-53.7656
 11
78.3836
 21
-53.7136
  0
LINE
  8
0
 10
78.3836
 20
-53.7136
 11
78.3886
 21
-53.6615
  0
LINE
  8
0
 10
78.3886
 20
-53.6615
 11
78.3927
 21
-53.6093
  0
LINE
  8
0
 10
78.3927
 20
-53.6093
 11
78.3959
 21
-53.557
  0
LINE
  8
0
 10
78.3959
 20
-53.557
 11
78.3982
 21
-53.5047
  0
LINE
  8
0
 10
78.3982
 20
-53.5047
 11
78.3995
 21
-53.4523
  0
LINE
  8
0
 10
78.3995
 20
-53.4523
 11
78.4
 21
-53.4
  0
LINE
  8
0
 10
78.4
 20
-53.4
 11
78.3995
 21
-53.3476
  0
LINE
  8
0
 10
78.3995
 20
-53.3476
 11
78.3982
 21
-53.2953
  0
LINE
  8
0
 10
78.3982
 20
-53.2953
 11
78.3959
 21
-53.243
  0
LINE
  8
0
 10
78.3959
 20
-53.243
 11
78.3927
 21
-53.1907
  0
LINE
  8
0
 10
78.3927
 20
-53.1907
 11
78.3886
 21
-53.1385
  0
LINE
  8
0
 10
78.3886
 20
-53.1385
 11
78.3836
 21
-53.0864
  0
LINE
  8
0
 10
78.3836
 20
-53.0864
 11
78.3776
 21
-53.0344
  0
LINE
  8
0
 10
78.3776
 20
-53.0344
 11
78.3708
 21
-52.9825
  0
LINE
  8
0
 10
78.3708
 20
-52.9825
 11
78.3631
 21
-52.9307
  0
LINE
  8
0
 10
78.3631
 20
-52.9307
 11
78.3544
 21
-52.879
  0
LINE
  8
0
 10
78.3544
 20
-52.879
 11
78.3449
 21
-52.8276
  0
LINE
  8
0
 10
78.3449
 20
-52.8276
 11
78.3344
 21
-52.7763
  0
LINE
  8
0
 10
78.3344
 20
-52.7763
 11
67.3344
 21
0.623734
  0
LINE
  8
0
 10
67.3344
 20
0.623734
 11
67.3231
 21
0.67485
  0
LINE
  8
0
 10
67.3231
 20
0.67485
 11
67.3109
 21
0.725754
  0
LINE
  8
0
 10
67.3109
 20
0.725754
 11
67.2978
 21
0.776443
  0
LINE
  8
0
 10
67.2978
 20
0.776443
 11
67.2838
 21
0.826904
  0
LINE
  8
0
 10
67.2838
 20
0.826904
 11
67.2689
 21
0.877106
  0
LINE
  8
0
 10
67.2689
 20
0.877106
 11
67.2532
 21
0.927048
  0
LINE
  8
0
 10
67.2532
 20
0.927048
 11
67.2366
 21
0.9767
  0
LINE
  8
0
 10
67.2366
 20
0.9767
 11
67.2191
 21
1.02605
  0
LINE
  8
0
 10
67.2191
 20
1.02605
 11
67.2007
 21
1.0751
  0
LINE
  8
0
 10
67.2007
 20
1.0751
 11
67.1815
 21
1.12381
  0
LINE
  8
0
 10
67.1815
 20
1.12381
 11
67.1615
 21
1.17218
  0
LINE
  8
0
 10
67.1615
 20
1.17218
 11
67.1406
 21
1.2202
  0
LINE
  8
0
 10
67.1406
 20
1.2202
 11
67.1189
 21
1.26785
  0
LINE
  8
0
 10
67.1189
 20
1.26785
 11
67.0964
 21
1.31511
  0
LINE
  8
0
 10
67.0964
 20
1.31511
 11
67.073
 21
1.36197
  0
LINE
  8
0
 10
67.073
 20
1.36197
 11
67.0488
 21
1.4084
  0
LINE
  8
0
 10
67.0488
 20
1.4084
 11
67.0238
 21
1.45442
  0
LINE
  8
0
 10
67.0238
 20
1.45442
 11
66.9981
 21
1.5
  0
LINE
  8
0
 10
66.9981
 20
1.5
 11
66.9715
 21
1.5451
  0
LINE
  8
0
 10
66.9715
 20
1.5451
 11
66.9441
 21
1.58975
  0
LINE
  8
0
 10
66.9441
 20
1.58975
 11
66.916
 21
1.63391
  0
LINE
  8
0
 10
66.916
 20
1.63391
 11
66.8871
 21
1.67757
  0
LINE
  8
0
 10
66.8871
 20
1.67757
 11
66.8575
 21
1.72072
  0
LINE
  8
0
 10
66.8575
 20
1.72072
 11
66.827
 21
1.76335
  0
LINE
  8
0
 10
66.827
 20
1.76335
 11
66.7959
 21
1.80544
  0
LINE
  8
0
 10
66.7959
 20
1.80544
 11
66.764
 21
1.84697
  0
LINE
  8
0
 10
66.764
 20
1.84697
 11
66.7314
 21
1.88795
  0
LINE
  8
0
 10
66.7314
 20
1.88795
 11
66.6981
 21
1.92836
  0
LINE
  8
0
 10
66.6981
 20
1.92836
 11
66.6641
 21
1.96817
  0
LINE
  8
0
 10
66.6641
 20
1.96817
 11
66.6294
 21
2.00739
  0
LINE
  8
0
 10
66.6294
 20
2.00739
 11
66.5941
 21
2.04599
  0
LINE
  8
0
 10
66.5941
 20
2.04599
 11
66.558
 21
2.08397
  0
LINE
  8
0
 10
66.558
 20
2.08397
 11
66.5213
 21
2.12131
  0
LINE
  8
0
 10
66.5213
 20
2.12131
 11
66.484
 21
2.158
  0
LINE
  8
0
 10
66.484
 20
2.158
 11
66.446
 21
2.19405
  0
LINE
  8
0
 10
66.446
 20
2.19405
 11
66.4074
 21
2.22943
  0
LINE
  8
0
 10
66.4074
 20
2.22943
 11
66.3682
 21
2.26411
  0
LINE
  8
0
 10
66.3682
 20
2.26411
 11
66.3284
 21
2.29813
  0
LINE
  8
0
 10
66.3284
 20
2.29813
 11
66.288
 21
2.33144
  0
LINE
  8
0
 10
66.288
 20
2.33144
 11
66.247
 21
2.36403
  0
LINE
  8
0
 10
66.247
 20
2.36403
 11
66.2054
 21
2.3959
  0
LINE
  8
0
 10
66.2054
 20
2.3959
 11
66.1633
 21
2.42705
  0
LINE
  8
0
 10
66.1633
 20
2.42705
 11
66.1207
 21
2.45744
  0
LINE
  8
0
 10
66.1207
 20
2.45744
 11
66.0776
 21
2.48711
  0
LINE
  8
0
 10
66.0776
 20
2.48711
 11
66.0339
 21
2.51601
  0
LINE
  8
0
 10
66.0339
 20
2.51601
 11
65.9898
 21
2.54414
  0
LINE
  8
0
 10
65.9898
 20
2.54414
 11
65.9451
 21
2.57149
  0
LINE
  8
0
 10
65.9451
 20
2.57149
 11
65.9
 21
2.59807
  0
LINE
  8
0
 10
65.9
 20
2.59807
 11
65.8544
 21
2.62386
  0
LINE
  8
0
 10
65.8544
 20
2.62386
 11
65.8084
 21
2.64883
  0
LINE
  8
0
 10
65.8084
 20
2.64883
 11
65.762
 21
2.67302
  0
LINE
  8
0
 10
65.762
 20
2.67302
 11
65.7151
 21
2.69638
  0
LINE
  8
0
 10
65.7151
 20
2.69638
 11
65.6678
 21
2.71892
  0
LINE
  8
0
 10
65.6678
 20
2.71892
 11
65.6202
 21
2.74063
  0
LINE
  8
0
 10
65.6202
 20
2.74063
 11
65.5722
 21
2.76151
  0
LINE
  8
0
 10
65.5722
 20
2.76151
 11
65.5238
 21
2.78154
  0
LINE
  8
0
 10
65.5238
 20
2.78154
 11
65.4751
 21
2.80074
  0
LINE
  8
0
 10
65.4751
 20
2.80074
 11
65.4261
 21
2.81908
  0
LINE
  8
0
 10
65.4261
 20
2.81908
 11
65.3767
 21
2.83655
  0
LINE
  8
0
 10
65.3767
 20
2.83655
 11
65.327
 21
2.85316
  0
LINE
  8
0
 10
65.327
 20
2.85316
 11
65.2771
 21
2.86891
  0
LINE
  8
0
 10
65.2771
 20
2.86891
 11
65.2269
 21
2.88377
  0
LINE
  8
0
 10
65.2269
 20
2.88377
 11
65.1765
 21
2.89777
  0
LINE
  8
0
 10
65.1765
 20
2.89777
 11
65.1258
 21
2.91087
  0
LINE
  8
0
 10
65.1258
 20
2.91087
 11
65.0748
 21
2.9231
  0
LINE
  8
0
 10
65.0748
 20
2.9231
 11
65.0237
 21
2.93443
  0
LINE
  8
0
 10
65.0237
 20
2.93443
 11
64.9724
 21
2.94487
  0
LINE
  8
0
 10
64.9724
 20
2.94487
 11
64.9209
 21
2.95442
  0
LINE
  8
0
 10
64.9209
 20
2.95442
 11
64.8693
 21
2.96306
  0
LINE
  8
0
 10
64.8693
 20
2.96306
 11
64.8175
 21
2.97079
  0
LINE
  8
0
 10
64.8175
 20
2.97079
 11
64.7656
 21
2.97763
  0
LINE
  8
0
 10
64.7656
 20
2.97763
 11
64.7136
 21
2.98355
  0
LINE
  8
0
 10
64.7136
 20
2.98355
 11
64.6615
 21
2.98857
  0
LINE
  8
0
 10
64.6615
 20
2.98857
 11
64.6093
 21
2.99269
  0
LINE
  8
0
 10
64.6093
 20
2.99269
 11
64.557
 21
2.99588
  0
LINE
  8
0
 10
64.557
 20
2.99588
 11
64.5047
 21
2.99817
  0
LINE
  8
0
 10
64.5047
 20
2.99817
 11
64.4523
 21
2.99954
  0
LINE
  8
0
 10
64.4523
 20
2.99954
 11
64.4
 21
3
  0
LINE
  8
0
 10
64.4
 20
3
 11
17.4
 21
3
  0
LINE
  8
0
 10
17.4
 20
3
 11
17.3476
 21
2.99954
  0
LINE
  8
0
 10
17.3476
 20
2.99954
 11
17.2953
 21
2.99817
  0
LINE
  8
0
 10
17.2953
 20
2.99817
 11
17.243
 21
2.99588
  0
LINE
  8
0
 10
17.243
 20
2.99588
 11
17.1907
 21
2.99269
  0
LINE
  8
0
 10
17.1907
 20
2.99269
 11
17.1385
 21
2.98857
  0
LINE
  8
0
 10
17.1385
 20
2.98857
 11
17.0864
 21
2.98355
  0
LINE
  8
0
 10
17.0864
 20
2.98355
 11
17.0344
 21
2.97763
  0
LINE
  8
0
 10
17.0344
 20
2.97763
 11
16.9825
 21
2.97079
  0
LINE
  8
0
 10
16.9825
 20
2.97079
 11
16.9307
 21
2.96306
  0
LINE
  8
0
 10
16.9307
 20
2.96306
 11
16.879
 21
2.95442
  0
LINE
  8
0
 10
16.879
 20
2.95442
 11
16.8276
 21
2.94487
  0
LINE
  8
0
 10
16.8276
 20
2.94487
 11
16.7763
 21
2.93443
  0
LINE
  8
0
 10
16.7763
 20
2.93443
 11
16.7251
 21
2.9231
  0
LINE
  8
0
 10
16.7251
 20
2.9231
 11
16.6742
 21
2.91087
  0
LINE
  8
0
 10
16.6742
 20
2.91087
 11
16.6235
 21
2.89777
  0
LINE
  8
0
 10
16.6235
 20
2.89777
 11
16.5731
 21
2.88377
  0
LINE
  8
0
 10
16.5731
 20
2.88377
 11
16.5229
 21
2.86891
  0
LINE
  8
0
 10
16.5229
 20
2.86891
 11
16.4729
 21
2.85316
  0
LINE
  8
0
 10
16.4729
 20
2.85316
 11
16.4233
 21
2.83655
  0
LINE
  8
0
 10
16.4233
 20
2.83655
 11
16.3739
 21
2.81908
  0
LINE
  8
0
 10
16.3739
 20
2.81908
 11
16.3249
 21
2.80074
  0
LINE
  8
0
 10
16.3249
 20
2.80074
 11
16.2762
 21
2.78154
  0
LINE
  8
0
 10
16.2762
 20
2.78154
 11
16.2278
 21
2.76151
  0
LINE
  8
0
 10
16.2278
 20
2.76151
 11
16.1798
 21
2.74063
  0
LINE
  8
0
 10
16.1798
 20
2.74063
 11
16.1321
 21
2.71892
  0
LINE
  8
0
 10
16.1321
 20
2.71892
 11
16.0849
 21
2.69638
  0
LINE
  8
0
 10
16.0849
 20
2.69638
 11
16.038
 21
2.67302
  0
LINE
  8
0
 10
16.038
 20
2.67302
 11
15.9916
 21
2.64883
  0
LINE
  8
0
 10
15.9916
 20
2.64883
 11
15.9456
 21
2.62386
  0
LINE
  8
0
 10
15.9456
 20
2.62386
 11
15.9
 21
2.59807
  0
LINE
  8
0
 10
15.9
 20
2.59807
 11
15.8549
 21
2.57149
  0
LINE
  8
0
 10
15.8549
 20
2.57149
 11
15.8102
 21
2.54414
  0
LINE
  8
0
 10
15.8102
 20
2.54414
 11
15.7661
 21
2.51601
  0
LINE
  8
0
 10
15.7661
 20
2.51601
 11
15.7224
 21
2.48711
  0
LINE
  8
0
 10
15.7224
 20
2.48711
 11
15.6793
 21
2.45744
  0
LINE
  8
0
 10
15.6793
 20
2.45744
 11
15.6366
 21
2.42705
  0
LINE
  8
0
 10
15.6366
 20
2.42705
 11
15.5945
 21
2.3959
  0
LINE
  8
0
 10
15.5945
 20
2.3959
 11
15.553
 21
2.36403
  0
LINE
  8
0
 10
15.553
 20
2.36403
 11
15.512
 21
2.33144
  0
LINE
  8
0
 10
15.512
 20
2.33144
 11
15.4716
 21
2.29813
  0
LINE
  8
0
 10
15.4716
 20
2.29813
 11
15.4318
 21
2.26411
  0
LINE
  8
0
 10
15.4318
 20
2.26411
 11
15.3926
 21
2.22943
  0
LINE
  8
0
 10
15.3926
 20
2.22943
 11
15.354
 21
2.19405
  0
LINE
  8
0
 10
15.354
 20
2.19405
 11
15.316
 21
2.158
  0
LINE
  8
0
 10
15.316
 20
2.158
 11
6.51602
 21
-6.44197
  0
LINE
  8
0
 10
6.51602
 20
-6.44197
 11
6.47867
 21
-6.47867
  0
LINE
  8
0
 10
6.47867
 20
-6.47867
 11
6.44197
 21
-6.51602
  0
LINE
  8
0
 10
6.44197
 20
-6.51602
 11
6.40593
 21
-6.554
  0
LINE
  8
0
 10
6.40593
 20
-6.554
 11
6.37056
 21
-6.59261
  0
LINE
  8
0
 10
6.37056
 20
-6.59261
 11
6.33586
 21
-6.63182
  0
LINE
  8
0
 10
6.33586
 20
-6.63182
 11
6.30186
 21
-6.67163
  0
LINE
  8
0
 10
6.30186
 20
-6.67163
 11
6.26855
 21
-6.71204
  0
LINE
  8
0
 10
6.26855
 20
-6.71204
 11
6.23596
 21
-6.75301
  0
LINE
  8
0
 10
6.23596
 20
-6.75301
 11
6.20409
 21
-6.79454
  0
LINE
  8
0
 10
6.20409
 20
-6.79454
 11
6.17294
 21
-6.83664
  0
LINE
  8
0
 10
6.17294
 20
-6.83664
 11
6.14253
 21
-6.87926
  0
LINE
  8
0
 10
6.14253
 20
-6.87926
 11
6.11288
 21
-6.92241
  0
LINE
  8
0
 10
6.11288
 20
-6.92241
 11
6.08398
 21
-6.96608
  0
LINE
  8
0
 10
6.08398
 20
-6.96608
 11
6.05585
 21
-7.01024
  0
LINE
  8
0
 10
6.05585
 20
-7.01024
 11
6.02849
 21
-7.05487
  0
LINE
  8
0
 10
6.02849
 20
-7.05487
 11
6.00192
 21
-7.09999
  0
LINE
  8
0
 10
6.00192
 20
-7.09999
 11
5.97614
 21
-7.14557
  0
LINE
  8
0
 10
5.97614
 20
-7.14557
 11
5.95116
 21
-7.19157
  0
LINE
  8
0
 10
5.95116
 20
-7.19157
 11
5.92697
 21
-7.23802
  0
LINE
  8
0
 10
5.92697
 20
-7.23802
 11
5.90361
 21
-7.28488
  0
LINE
  8
0
 10
5.90361
 20
-7.28488
 11
5.88107
 21
-7.33214
  0
LINE
  8
0
 10
5.88107
 20
-7.33214
 11
5.85936
 21
-7.37978
  0
LINE
  8
0
 10
5.85936
 20
-7.37978
 11
5.83847
 21
-7.4278
  0
LINE
  8
0
 10
5.83847
 20
-7.4278
 11
5.81844
 21
-7.47617
  0
LINE
  8
0
 10
5.81844
 20
-7.47617
 11
5.79926
 21
-7.52489
  0
LINE
  8
0
 10
5.79926
 20
-7.52489
 11
5.78091
 21
-7.57393
  0
LINE
  8
0
 10
5.78091
 20
-7.57393
 11
5.76344
 21
-7.62329
  0
LINE
  8
0
 10
5.76344
 20
-7.62329
 11
5.74683
 21
-7.67294
  0
LINE
  8
0
 10
5.74683
 20
-7.67294
 11
5.73108
 21
-7.72287
  0
LINE
  8
0
 10
5.73108
 20
-7.72287
 11
5.7162
 21
-7.77309
  0
LINE
  8
0
 10
5.7162
 20
-7.77309
 11
5.70221
 21
-7.82353
  0
LINE
  8
0
 10
5.70221
 20
-7.82353
 11
5.6891
 21
-7.87422
  0
LINE
  8
0
 10
5.6891
 20
-7.87422
 11
5.67688
 21
-7.92514
  0
LINE
  8
0
 10
5.67688
 20
-7.92514
 11
5.66554
 21
-7.97626
  0
LINE
  8
0
 10
5.66554
 20
-7.97626
 11
5.65511
 21
-8.02757
  0
LINE
  8
0
 10
5.65511
 20
-8.02757
 11
5.64557
 21
-8.07904
  0
LINE
  8
0
 10
5.64557
 20
-8.07904
 11
5.63693
 21
-8.13069
  0
LINE
  8
0
 10
5.63693
 20
-8.13069
 11
5.62918
 21
-8.18248
  0
LINE
  8
0
 10
5.62918
 20
-8.18248
 11
5.62236
 21
-8.23439
  0
LINE
  8
0
 10
5.62236
 20
-8.23439
 11
5.61642
 21
-8.28641
  0
LINE
  8
0
 10
5.61642
 20
-8.28641
 11
5.6114
 21
-8.33853
  0
LINE
  8
0
 10
5.6114
 20
-8.33853
 11
5.6073
 21
-8.39072
  0
LINE
  8
0
 10
5.6073
 20
-8.39072
 11
5.60411
 21
-8.44298
  0
LINE
  8
0
 10
5.60411
 20
-8.44298
 11
5.60182
 21
-8.4953
  0
LINE
  8
0
 10
5.60182
 20
-8.4953
 11
5.60045
 21
-8.54764
  0
LINE
  8
0
 10
5.60045
 20
-8.54764
 11
5.59999
 21
-8.59999
  0
LINE
  8
0
 10
5.59999
 20
-8.59999
 11
5.60045
 21
-8.65234
  0
LINE
  8
0
 10
5.60045
 20
-8.65234
 11
5.60182
 21
-8.7047
  0
LINE
  8
0
 10
5.60182
 20
-8.7047
 11
5.60411
 21
-8.757
  0
LINE
  8
0
 10
5.60411
 20
-8.757
 11
5.6073
 21
-8.80927
  0
LINE
  8
0
 10
5.6073
 20
-8.80927
 11
5.6114
 21
-8.86147
  0
LINE
  8
0
 10
5.6114
 20
-8.86147
 11
5.61642
 21
-8.91357
  0
LINE
  8
0
 10
5.61642
 20
-8.91357
 11
5.62236
 21
-8.96561
  0
LINE
  8
0
 10
5.62236
 20
-8.96561
 11
5.62918
 21
-9.01752
  0
LINE
  8
0
 10
5.62918
 20
-9.01752
 11
5.63693
 21
-9.06929
  0
LINE
  8
0
 10
5.63693
 20
-9.06929
 11
5.64557
 21
-9.12094
  0
LINE
  8
0
 10
5.64557
 20
-9.12094
 11
5.65511
 21
-9.17242
  0
LINE
  8
0
 10
5.65511
 20
-9.17242
 11
5.66554
 21
-9.22372
  0
LINE
  8
0
 10
5.66554
 20
-9.22372
 11
5.67688
 21
-9.27484
  0
LINE
  8
0
 10
5.67688
 20
-9.27484
 11
5.6891
 21
-9.32576
  0
LINE
  8
0
 10
5.6891
 20
-9.32576
 11
5.70221
 21
-9.37645
  0
LINE
  8
0
 10
5.70221
 20
-9.37645
 11
5.7162
 21
-9.42691
  0
LINE
  8
0
 10
5.7162
 20
-9.42691
 11
5.73108
 21
-9.47711
  0
LINE
  8
0
 10
5.73108
 20
-9.47711
 11
5.74683
 21
-9.52704
  0
LINE
  8
0
 10
5.74683
 20
-9.52704
 11
5.76344
 21
-9.57669
  0
LINE
  8
0
 10
5.76344
 20
-9.57669
 11
5.78091
 21
-9.62605
  0
LINE
  8
0
 10
5.78091
 20
-9.62605
 11
5.79926
 21
-9.67509
  0
LINE
  8
0
 10
5.79926
 20
-9.67509
 11
5.81844
 21
-9.72382
  0
LINE
  8
0
 10
5.81844
 20
-9.72382
 11
5.83847
 21
-9.77219
  0
LINE
  8
0
 10
5.83847
 20
-9.77219
 11
5.85936
 21
-9.82021
  0
LINE
  8
0
 10
5.85936
 20
-9.82021
 11
5.88107
 21
-9.86784
  0
LINE
  8
0
 10
5.88107
 20
-9.86784
 11
5.90361
 21
-9.9151
  0
LINE
  8
0
 10
5.90361
 20
-9.9151
 11
5.92697
 21
-9.96196
  0
LINE
  8
0
 10
5.92697
 20
-9.96196
 11
5.95116
 21
-10.0084
  0
LINE
  8
0
 10
5.95116
 20
-10.0084
 11
5.97614
 21
-10.0544
  0
LINE
  8
0
 10
5.97614
 20
-10.0544
 11
6.00192
 21
-10.1
  0
LINE
  8
0
 10
6.00192
 20
-10.1
 11
6.02849
 21
-10.1451
  0
LINE
  8
0
 10
6.02849
 20
-10.1451
 11
6.05585
 21
-10.1897
  0
LINE
  8
0
 10
6.05585
 20
-10.1897
 11
6.08398
 21
-10.2339
  0
LINE
  8
0
 10
6.08398
 20
-10.2339
 11
6.11288
 21
-10.2776
  0
LINE
  8
0
 10
6.11288
 20
-10.2776
 11
6.14253
 21
-10.3207
  0
LINE
  8
0
 10
6.14253
 20
-10.3207
 11
6.17294
 21
-10.3633
  0
LINE
  8
0
 10
6.17294
 20
-10.3633
 11
6.20409
 21
-10.4054
  0
LINE
  8
0
 10
6.20409
 20
-10.4054
 11
6.23596
 21
-10.447
  0
LINE
  8
0
 10
6.23596
 20
-10.447
 11
6.26855
 21
-10.488
  0
LINE
  8
0
 10
6.26855
 20
-10.488
 11
6.30186
 21
-10.5284
  0
LINE
  8
0
 10
6.30186
 20
-10.5284
 11
6.33586
 21
-10.5682
  0
LINE
  8
0
 10
6.33586
 20
-10.5682
 11
6.37056
 21
-10.6074
  0
LINE
  8
0
 10
6.37056
 20
-10.6074
 11
6.40593
 21
-10.646
  0
LINE
  8
0
 10
6.40593
 20
-10.646
 11
6.44197
 21
-10.684
  0
LINE
  8
0
 10
6.44197
 20
-10.684
 11
6.47867
 21
-10.7213
  0
LINE
  8
0
 10
6.47867
 20
-10.7213
 11
62.2787
 21
-66.5213
  0
LINE
  8
0
 10
62.2787
 20
-66.5213
 11
62.316
 21
-66.558
  0
LINE
  8
0
 10
62.316
 20
-66.558
 11
62.354
 21
-66.5941
  0
LINE
  8
0
 10
62.354
 20
-66.5941
 11
62.3926
 21
-66.6294
  0
LINE
  8
0
 10
62.3926
 20
-66.6294
 11
62.4318
 21
-66.6641
  0
LINE
  8
0
 10
62.4318
 20
-66.6641
 11
62.4716
 21
-66.6981
  0
LINE
  8
0
 10
62.4716
 20
-66.6981
 11
62.512
 21
-66.7314
  0
LINE
  8
0
 10
62.512
 20
-66.7314
 11
62.553
 21
-66.764
  0
LINE
  8
0
 10
62.553
 20
-66.764
 11
62.5945
 21
-66.7959
  0
LINE
  8
0
 10
62.5945
 20
-66.7959
 11
62.6366
 21
-66.827
  0
LINE
  8
0
 10
62.6366
 20
-66.827
 11
62.6793
 21
-66.8575
  0
LINE
  8
0
 10
62.6793
 20
-66.8575
 11
62.7224
 21
-66.8871
  0
LINE
  8
0
 10
62.7224
 20
-66.8871
 11
62.7661
 21
-66.916
  0
LINE
  8
0
 10
62.7661
 20
-66.916
 11
62.8102
 21
-66.9441
  0
LINE
  8
0
 10
62.8102
 20
-66.9441
 11
62.8549
 21
-66.9715
  0
LINE
  8
0
 10
62.8549
 20
-66.9715
 11
62.9
 21
-66.9981
  0
LINE
  8
0
 10
62.9
 20
-66.9981
 11
62.9456
 21
-67.0238
  0
LINE
  8
0
 10
62.9456
 20
-67.0238
 11
62.9916
 21
-67.0488
  0
LINE
  8
0
 10
62.9916
 20
-67.0488
 11
63.038
 21
-67.073
  0
LINE
  8
0
 10
63.038
 20
-67.073
 11
63.0849
 21
-67.0964
  0
LINE
  8
0
 10
63.0849
 20
-67.0964
 11
63.1321
 21
-67.1189
  0
LINE
  8
0
 10
63.1321
 20
-67.1189
 11
63.1798
 21
-67.1406
  0
LINE
  8
0
 10
63.1798
 20
-67.1406
 11
63.2278
 21
-67.1615
  0
LINE
  8
0
 10
63.2278
 20
-67.1615
 11
63.2762
 21
-67.1815
  0
LINE
  8
0
 10
63.2762
 20
-67.1815
 11
63.3249
 21
-67.2007
  0
LINE
  8
0
 10
63.3249
 20
-67.2007
 11
63.3739
 21
-67.2191
  0
LINE
  8
0
 10
63.3739
 20
-67.2191
 11
63.4233
 21
-67.2366
  0
LINE
  8
0
 10
63.4233
 20
-67.2366
 11
63.4729
 21
-67.2532
  0
LINE
  8
0
 10
63.4729
 20
-67.2532
 11
63.5229
 21
-67.2689
  0
LINE
  8
0
 10
63.5229
 20
-67.2689
 11
63.5731
 21
-67.2838
  0
LINE
  8
0
 10
63.5731
 20
-67.2838
 11
63.6235
 21
-67.2978
  0
LINE
  8
0
 10
63.6235
 20
-67.2978
 11
63.6742
 21
-67.3109
  0
LINE
  8
0
 10
63.6742
 20
-67.3109
 11
63.7251
 21
-67.3231
  0
LINE
  8
0
 10
63.7251
 20
-67.3231
 11
63.7763
 21
-67.3344
  0
LINE
  8
0
 10
63.7763
 20
-67.3344
 11
63.8276
 21
-67.3449
  0
LINE
  8
0
 10
63.8276
 20
-67.3449
 11
63.879
 21
-67.3544
  0
LINE
  8
0
 10
63.879
 20
-67.3544
 11
63.9307
 21
-67.3631
  0
LINE
  8
0
 10
63.9307
 20
-67.3631
 11
63.9825
 21
-67.3708
  0
LINE
  8
0
 10
63.9825
 20
-67.3708
 11
64.0344
 21
-67.3776
  0
LINE
  8
0
 10
64.0344
 20
-67.3776
 11
64.0864
 21
-67.3836
  0
LINE
  8
0
 10
64.0864
 20
-67.3836
 11
64.1385
 21
-67.3886
  0
LINE
  8
0
 10
64.1385
 20
-67.3886
 11
64.1907
 21
-67.3927
  0
LINE
  8
0
 10
64.1907
 20
-67.3927
 11
64.243
 21
-67.3959
  0
LINE
  8
0
 10
64.243
 20
-67.3959
 11
64.2953
 21
-67.3982
  0
LINE
  8
0
 10
64.2953
 20
-67.3982
 11
64.3476
 21
-67.3995
  0
LINE
  8
0
 10
64.3476
 20
-67.3995
 11
64.4
 21
-67.4
  0
LINE
  8
0
 10
64.4
 20
-67.4
 11
64.4523
 21
-67.3995
  0
LINE
  8
0
 10
17.4
 20
-10
 11
17.4
 21
0
  0
LINE
  8
0
 10
17.4
 20
0
 11
64.4
 21
0
  0
LINE
  8
0
 10
64.4
 20
0
 11
64.4
 21
-10
  0
LINE
  8
0
 10
64.4
 20
-10
 11
17.4
 21
-10
  0
LINE
  8
0
 10
24.7487
 20
-17.6777
 11
26.8701
 21
-15.5563
  0
LINE
  8
0
 10
26.8701
 20
-15.5563
 11
31.1127
 21
-19.799
  0
LINE
  8
0
 10
31.1127
 20
-19.799
 11
28.9914
 21
-21.9203
  0
LINE
  8
0
 10
28.9914
 20
-21.9203
 11
24.7487
 21
-17.6777
  0
LINE
  8
0
 10
34.6482
 20
-27.5772
 11
41.7193
 21
-20.5061
  0
LINE
  8
0
 10
41.7193
 20
-20.5061
 11
74.9533
 21
-53.7401
  0
LINE
  8
0
 10
74.9533
 20
-53.7401
 11
67.8822
 21
-60.8112
  0
LINE
  8
0
 10
67.8822
 20
-60.8112
 11
34.6482
 21
-27.5772
  0
LINE
  8
0
 10
62.6524
 20
-94.9995
 11
62.7047
 21
-94.9982
  0
LINE
  8
0
 10
62.7047
 20
-94.9982
 11
62.757
 21
-94.9959
  0
LINE
  8
0
 10
62.757
 20
-94.9959
 11
62.8093
 21
-94.9927
  0
LINE
  8
0
 10
62.8093
 20
-94.9927
 11
62.8615
 21
-94.9886
  0
LINE
  8
0
 10
62.8615
 20
-94.9886
 11
62.9136
 21
-94.9836
  0
LINE
  8
0
 10
62.9136
 20
-94.9836
 11
62.9656
 21
-94.9776
  0
LINE
  8
0
 10
62.9656
 20
-94.9776
 11
63.0175
 21
-94.9708
  0
LINE
  8
0
 10
63.0175
 20
-94.9708
 11
63.0693
 21
-94.9631
  0
LINE
  8
0
 10
63.0693
 20
-94.9631
 11
63.1209
 21
-94.9544
  0
LINE
  8
0
 10
63.1209
 20
-94.9544
 11
63.1724
 21
-94.9449
  0
LINE
  8
0
 10
63.1724
 20
-94.9449
 11
63.2237
 21
-94.9344
  0
LINE
  8
0
 10
63.2237
 20
-94.9344
 11
63.2748
 21
-94.9231
  0
LINE
  8
0
 10
63.2748
 20
-94.9231
 11
63.3258
 21
-94.9109
  0
LINE
  8
0
 10
63.3258
 20
-94.9109
 11
63.3764
 21
-94.8978
  0
LINE
  8
0
 10
63.3764
 20
-94.8978
 11
63.4269
 21
-94.8838
  0
LINE
  8
0
 10
63.4269
 20
-94.8838
 11
63.4771
 21
-94.8689
  0
LINE
  8
0
 10
63.4771
 20
-94.8689
 11
63.5271
 21
-94.8532
  0
LINE
  8
0
 10
63.5271
 20
-94.8532
 11
63.5767
 21
-94.8365
  0
LINE
  8
0
 10
63.5767
 20
-94.8365
 11
63.6261
 21
-94.8191
  0
LINE
  8
0
 10
63.6261
 20
-94.8191
 11
63.6751
 21
-94.8007
  0
LINE
  8
0
 10
63.6751
 20
-94.8007
 11
63.7238
 21
-94.7816
  0
LINE
  8
0
 10
63.7238
 20
-94.7816
 11
63.7722
 21
-94.7615
  0
LINE
  8
0
 10
63.7722
 20
-94.7615
 11
63.8202
 21
-94.7406
  0
LINE
  8
0
 10
63.8202
 20
-94.7406
 11
63.8678
 21
-94.7189
  0
LINE
  8
0
 10
63.8678
 20
-94.7189
 11
63.9151
 21
-94.6964
  0
LINE
  8
0
 10
63.9151
 20
-94.6964
 11
63.962
 21
-94.673
  0
LINE
  8
0
 10
63.962
 20
-94.673
 11
64.0084
 21
-94.6488
  0
LINE
  8
0
 10
64.0084
 20
-94.6488
 11
64.0544
 21
-94.6239
  0
LINE
  8
0
 10
64.0544
 20
-94.6239
 11
64.1
 21
-94.5981
  0
LINE
  8
0
 10
64.1
 20
-94.5981
 11
64.1451
 21
-94.5715
  0
LINE
  8
0
 10
64.1451
 20
-94.5715
 11
64.1898
 21
-94.5441
  0
LINE
  8
0
 10
64.1898
 20
-94.5441
 11
64.2339
 21
-94.516
  0
LINE
  8
0
 10
64.2339
 20
-94.516
 11
64.2776
 21
-94.4871
  0
LINE
  8
0
 10
64.2776
 20
-94.4871
 11
64.3207
 21
-94.4575
  0
LINE
  8
0
 10
64.3207
 20
-94.4575
 11
64.3634
 21
-94.427
  0
LINE
  8
0
 10
64.3634
 20
-94.427
 11
64.4054
 21
-94.3959
  0
LINE
  8
0
 10
64.4054
 20
-94.3959
 11
64.447
 21
-94.364
  0
LINE
  8
0
 10
64.447
 20
-94.364
 11
64.488
 21
-94.3314
  0
LINE
  8
0
 10
64.488
 20
-94.3314
 11
64.5284
 21
-94.2981
  0
LINE
  8
0
 10
64.5284
 20
-94.2981
 11
64.5682
 21
-94.2641
  0
LINE
  8
0
 10
64.5682
 20
-94.2641
 11
64.6074
 21
-94.2294
  0
LINE
  8
0
 10
64.6074
 20
-94.2294
 11
64.646
 21
-94.1941
  0
LINE
  8
0
 10
64.646
 20
-94.1941
 11
64.684
 21
-94.158
  0
LINE
  8
0
 10
64.684
 20
-94.158
 11
73.484
 21
-85.558
  0
LINE
  8
0
 10
73.484
 20
-85.558
 11
73.5213
 21
-85.5213
  0
LINE
  8
0
 10
73.5213
 20
-85.5213
 11
73.558
 21
-85.484
  0
LINE
  8
0
 10
73.558
 20
-85.484
 11
73.5941
 21
-85.446
  0
LINE
  8
0
 10
73.5941
 20
-85.446
 11
73.6294
 21
-85.4074
  0
LINE
  8
0
 10
73.6294
 20
-85.4074
 11
73.6641
 21
-85.3682
  0
LINE
  8
0
 10
73.6641
 20
-85.3682
 11
73.6981
 21
-85.3284
  0
LINE
  8
0
 10
73.6981
 20
-85.3284
 11
73.7314
 21
-85.288
  0
LINE
  8
0
 10
73.7314
 20
-85.288
 11
73.764
 21
-85.247
  0
LINE
  8
0
 10
73.764
 20
-85.247
 11
73.7959
 21
-85.2054
  0
LINE
  8
0
 10
73.7959
 20
-85.2054
 11
73.827
 21
-85.1633
  0
LINE
  8
0
 10
73.827
 20
-85.1633
 11
73.8575
 21
-85.1207
  0
LINE
  8
0
 10
73.8575
 20
-85.1207
 11
73.8871
 21
-85.0776
  0
LINE
  8
0
 10
73.8871
 20
-85.0776
 11
73.916
 21
-85.0339
  0
LINE
  8
0
 10
73.916
 20
-85.0339
 11
73.9441
 21
-84.9898
  0
LINE
  8
0
 10
73.9441
 20
-84.9898
 11
73.9715
 21
-84.9451
  0
LINE
  8
0
 10
73.9715
 20
-84.9451
 11
73.9981
 21
-84.9
  0
LINE
  8
0
 10
73.9981
 20
-84.9
 11
74.0238
 21
-84.8544
  0
LINE
  8
0
 10
74.0238
 20
-84.8544
 11
74.0488
 21
-84.8084
  0
LINE
  8
0
 10
74.0488
 20
-84.8084
 11
74.073
 21
-84.762
  0
LINE
  8
0
 10
74.073
 20
-84.762
 11
74.0964
 21
-84.7151
  0
LINE
  8
0
 10
74.0964
 20
-84.7151
 11
74.1189
 21
-84.6678
  0
LINE
  8
0
 10
74.1189
 20
-84.6678
 11
74.1406
 21
-84.6202
  0
LINE
  8
0
 10
74.1406
 20
-84.6202
 11
74.1615
 21
-84.5722
  0
LINE
  8
0
 10
74.1615
 20
-84.5722
 11
74.1815
 21
-84.5238
  0
LINE
  8
0
 10
74.1815
 20
-84.5238
 11
74.2007
 21
-84.4751
  0
LINE
  8
0
 10
74.2007
 20
-84.4751
 11
74.2191
 21
-84.4261
  0
LINE
  8
0
 10
74.2191
 20
-84.4261
 11
74.2366
 21
-84.3767
  0
LINE
  8
0
 10
74.2366
 20
-84.3767
 11
74.2532
 21
-84.327
  0
LINE
  8
0
 10
74.2532
 20
-84.327
 11
74.2689
 21
-84.2771
  0
LINE
  8
0
 10
74.2689
 20
-84.2771
 11
74.2838
 21
-84.2269
  0
LINE
  8
0
 10
74.2838
 20
-84.2269
 11
74.2978
 21
-84.1765
  0
LINE
  8
0
 10
74.2978
 20
-84.1765
 11
74.3109
 21
-84.1258
  0
LINE
  8
0
 10
74.3109
 20
-84.1258
 11
74.3231
 21
-84.0748
  0
LINE
  8
0
 10
74.3231
 20
-84.0748
 11
74.3344
 21
-84.0237
  0
LINE
  8
0
 10
74.3344
 20
-84.0237
 11
74.3449
 21
-83.9724
  0
LINE
  8
0
 10
74.3449
 20
-83.9724
 11
74.3544
 21
-83.9209
  0
LINE
  8
0
 10
74.3544
 20
-83.9209
 11
74.3631
 21
-83.8693
  0
LINE
  8
0
 10
74.3631
 20
-83.8693
 11
74.3708
 21
-83.8175
  0
LINE
  8
0
 10
74.3708
 20
-83.8175
 11
74.3776
 21
-83.7656
  0
LINE
  8
0
 10
74.3776
 20
-83.7656
 11
74.3836
 21
-83.7136
  0
LINE
  8
0
 10
74.3836
 20
-83.7136
 11
74.3886
 21
-83.6615
  0
LINE
  8
0
 10
74.3886
 20
-83.6615
 11
74.3927
 21
-83.6093
  0
LINE
  8
0
 10
74.3927
 20
-83.6093
 11
74.3959
 21
-83.557
  0
LINE
  8
0
 10
74.3959
 20
-83.557
 11
74.3982
 21
-83.5047
  0
LINE
  8
0
 10
74.3982
 20
-83.5047
 11
74.3995
 21
-83.4523
  0
LINE
  8
0
 10
74.3995
 20
-83.4523
 11
74.4
 21
-83.4
  0
LINE
  8
0
 10
74.4
 20
-83.4
 11
74.3995
 21
-83.3476
  0
LINE
  8
0
 10
74.3995
 20
-83.3476
 11
74.3982
 21
-83.2953
  0
LINE
  8
0
 10
74.3982
 20
-83.2953
 11
74.3959
 21
-83.243
  0
LINE
  8
0
 10
74.3959
 20
-83.243
 11
74.3927
 21
-83.1907
  0
LINE
  8
0
 10
74.3927
 20
-83.1907
 11
74.3886
 21
-83.1385
  0
LINE
  8
0
 10
74.3886
 20
-83.1385
 11
74.3836
 21
-83.0864
  0
LINE
  8
0
 10
74.3836
 20
-83.0864
 11
74.3776
 21
-83.0344
  0
LINE
  8
0
 10
74.3776
 20
-83.0344
 11
74.3708
 21
-82.9825
  0
LINE
  8
0
 10
74.3708
 20
-82.9825
 11
74.3631
 21
-82.9307
  0
LINE
  8
0
 10
74.3631
 20
-82.9307
 11
74.3544
 21
-82.8791
  0
LINE
  8
0
 10
74.3544
 20
-82.8791
 11
74.3449
 21
-82.8276
  0
LINE
  8
0
 10
74.3449
 20
-82.8276
 11
74.3344
 21
-82.7763
  0
LINE
  8
0
 10
74.3344
 20
-82.7763
 11
74.3231
 21
-82.7251
  0
LINE
  8
0
 10
74.3231
 20
-82.7251
 11
74.3109
 21
-82.6742
  0
LINE
  8
0
 10
74.3109
 20
-82.6742
 11
74.2978
 21
-82.6235
  0
LINE
  8
0
 10
74.2978
 20
-82.6235
 11
74.2838
 21
-82.5731
  0
LINE
  8
0
 10
74.2838
 20
-82.5731
 11
74.2689
 21
-82.5229
  0
LINE
  8
0
 10
74.2689
 20
-82.5229
 11
74.2532
 21
-82.4729
  0
LINE
  8
0
 10
74.2532
 20
-82.4729
 11
74.2366
 21
-82.4233
  0
LINE
  8
0
 10
74.2366
 20
-82.4233
 11
74.2191
 21
-82.3739
  0
LINE
  8
0
 10
74.2191
 20
-82.3739
 11
74.2007
 21
-82.3249
  0
LINE
  8
0
 10
74.2007
 20
-82.3249
 11
74.1815
 21
-82.2762
  0
LINE
  8
0
 10
74.1815
 20
-82.2762
 11
74.1615
 21
-82.2278
  0
LINE
  8
0
 10
74.1615
 20
-82.2278
 11
74.1406
 21
-82.1798
  0
LINE
  8
0
 10
74.1406
 20
-82.1798
 11
74.1189
 21
-82.1321
  0
LINE
  8
0
 10
74.1189
 20
-82.1321
 11
74.0964
 21
-82.0849
  0
LINE
  8
0
 10
74.0964
 20
-82.0849
 11
74.073
 21
-82.038
  0
LINE
  8
0
 10
74.073
 20
-82.038
 11
74.0488
 21
-81.9916
  0
LINE
  8
0
 10
74.0488
 20
-81.9916
 11
74.0238
 21
-81.9456
  0
LINE
  8
0
 10
74.0238
 20
-81.9456
 11
73.9981
 21
-81.9
  0
LINE
  8
0
 10
73.9981
 20
-81.9
 11
73.9715
 21
-81.8549
  0
LINE
  8
0
 10
73.9715
 20
-81.8549
 11
73.9441
 21
-81.8102
  0
LINE
  8
0
 10
73.9441
 20
-81.8102
 11
73.916
 21
-81.7661
  0
LINE
  8
0
 10
73.916
 20
-81.7661
 11
73.8871
 21
-81.7224
  0
LINE
  8
0
 10
73.8871
 20
-81.7224
 11
73.8575
 21
-81.6793
  0
LINE
  8
0
 10
73.8575
 20
-81.6793
 11
73.827
 21
-81.6366
  0
LINE
  8
0
 10
73.827
 20
-81.6366
 11
73.7959
 21
-81.5946
  0
LINE
  8
0
 10
73.7959
 20
-81.5946
 11
73.764
 21
-81.553
  0
LINE
  8
0
 10
73.764
 20
-81.553
 11
73.7314
 21
-81.512
  0
LINE
  8
0
 10
73.7314
 20
-81.512
 11
73.6981
 21
-81.4716
  0
LINE
  8
0
 10
73.6981
 20
-81.4716
 11
73.6641
 21
-81.4318
  0
LINE
  8
0
 10
73.6641
 20
-81.4318
 11
73.6294
 21
-81.3926
  0
LINE
  8
0
 10
73.6294
 20
-81.3926
 11
73.5941
 21
-81.354
  0
LINE
  8
0
 10
73.5941
 20
-81.354
 11
73.558
 21
-81.316
  0
LINE
  8
0
 10
73.558
 20
-81.316
 11
73.5213
 21
-81.2787
  0
LINE
  8
0
 10
73.5213
 20
-81.2787
 11
17.7213
 21
-25.4787
  0
LINE
  8
0
 10
17.7213
 20
-25.4787
 11
17.684
 21
-25.442
  0
LINE
  8
0
 10
17.684
 20
-25.442
 11
17.646
 21
-25.4059
  0
LINE
  8
0
 10
17.646
 20
-25.4059
 11
17.6074
 21
-25.3706
  0
LINE
  8
0
 10
17.6074
 20
-25.3706
 11
17.5682
 21
-25.3359
  0
LINE
  8
0
 10
17.5682
 20
-25.3359
 11
17.5284
 21
-25.3019
  0
LINE
  8
0
 10
17.5284
 20
-25.3019
 11
17.488
 21
-25.2686
  0
LINE
  8
0
 10
17.488
 20
-25.2686
 11
17.447
 21
-25.236
  0
LINE
  8
0
 10
17.447
 20
-25.236
 11
17.4054
 21
-25.2041
  0
LINE
  8
0
 10
17.4054
 20
-25.2041
 11
17.3634
 21
-25.1729
  0
LINE
  8
0
 10
17.3634
 20
-25.1729
 11
17.3207
 21
-25.1425
  0
LINE
  8
0
 10
17.3207
 20
-25.1425
 11
17.2776
 21
-25.1129
  0
LINE
  8
0
 10
17.2776
 20
-25.1129
 11
17.2339
 21
-25.084
  0
LINE
  8
0
 10
17.2339
 20
-25.084
 11
17.1898
 21
-25.0558
  0
LINE
  8
0
 10
17.1898
 20
-25.0558
 11
17.1451
 21
-25.0285
  0
LINE
  8
0
 10
17.1451
 20
-25.0285
 11
17.1
 21
-25.0019
  0
LINE
  8
0
 10
17.1
 20
-25.0019
 11
17.0544
 21
-24.9761
  0
LINE
  8
0
 10
17.0544
 20
-24.9761
 11
17.0084
 21
-24.9512
  0
LINE
  8
0
 10
17.0084
 20
-24.9512
 11
16.962
 21
-24.927
  0
LINE
  8
0
 10
16.962
 20
-24.927
 11
16.9151
 21
-24.9036
  0
LINE
  8
0
 10
16.9151
 20
-24.9036
 11
16.8678
 21
-24.8811
  0
LINE
  8
0
 10
16.8678
 20
-24.8811
 11
16.8202
 21
-24.8594
  0
LINE
  8
0
 10
16.8202
 20
-24.8594
 11
16.7722
 21
-24.8385
  0
LINE
  8
0
 10
16.7722
 20
-24.8385
 11
16.7238
 21
-24.8184
  0
LINE
  8
0
 10
16.7238
 20
-24.8184
 11
16.6751
 21
-24.7993
  0
LINE
  8
0
 10
16.6751
 20
-24.7993
 11
16.6261
 21
-24.7809
  0
LINE
  8
0
 10
16.6261
 20
-24.7809
 11
16.5767
 21
-24.7634
  0
LINE
  8
0
 10
16.5767
 20
-24.7634
 11
16.527
 21
-24.7468
  0
LINE
  8
0
 10
16.527
 20
-24.7468
 11
16.4771
 21
-24.7311
  0
LINE
  8
0
 10
16.4771
 20
-24.7311
 11
16.4269
 21
-24.7162
  0
LINE
  8
0
 10
16.4269
 20
-24.7162
 11
16.3764
 21
-24.7022
  0
LINE
  8
0
 10
16.3764
 20
-24.7022
 11
16.3258
 21
-24.6891
  0
LINE
  8
0
 10
16.3258
 20
-24.6891
 11
16.2748
 21
-24.6769
  0
LINE
  8
0
 10
16.2748
 20
-24.6769
 11
16.2237
 21
-24.6656
  0
LINE
  8
0
 10
16.2237
 20
-24.6656
 11
16.1724
 21
-24.6551
  0
LINE
  8
0
 10
16.1724
 20
-24.6551
 11
16.1209
 21
-24.6456
  0
LINE
  8
0
 10
16.1209
 20
-24.6456
 11
16.0693
 21
-24.6369
  0
LINE
  8
0
 10
16.0693
 20
-24.6369
 11
16.0175
 21
-24.6292
  0
LINE
  8
0
 10
16.0175
 20
-24.6292
 11
15.9656
 21
-24.6224
  0
LINE
  8
0
 10
15.9656
 20
-24.6224
 11
15.9136
 21
-24.6164
  0
LINE
  8
0
 10
15.9136
 20
-24.6164
 11
15.8615
 21
-24.6114
  0
LINE
  8
0
 10
15.8615
 20
-24.6114
 11
15.8093
 21
-24.6073
  0
LINE
  8
0
 10
15.8093
 20
-24.6073
 11
15.757
 21
-24.6041
  0
LINE
  8
0
 10
15.757
 20
-24.6041
 11
15.7047
 21
-24.6018
  0
LINE
  8
0
 10
15.7047
 20
-24.6018
 11
15.6523
 21
-24.6004
  0
LINE
  8
0
 10
15.6523
 20
-24.6004
 11
15.6
 21
-24.6
  0
LINE
  8
0
 10
15.6
 20
-24.6
 11
15.5476
 21
-24.6004
  0
LINE
  8
0
 10
15.5476
 20
-24.6004
 11
15.4953
 21
-24.6018
  0
LINE
  8
0
 10
15.4953
 20
-24.6018
 11
15.443
 21
-24.6041
  0
LINE
  8
0
 10
15.443
 20
-24.6041
 11
15.3907
 21
-24.6073
  0
LINE
  8
0
 10
15.3907
 20
-24.6073
 11
15.3385
 21
-24.6114
  0
LINE
  8
0
 10
15.3385
 20
-24.6114
 11
15.2864
 21
-24.6164
  0
LINE
  8
0
 10
15.2864
 20
-24.6164
 11
15.2344
 21
-24.6224
  0
LINE
  8
0
 10
15.2344
 20
-24.6224
 11
15.1825
 21
-24.6292
  0
LINE
  8
0
 10
15.1825
 20
-24.6292
 11
15.1307
 21
-24.6369
  0
LINE
  8
0
 10
15.1307
 20
-24.6369
 11
15.0791
 21
-24.6456
  0
LINE
  8
0
 10
15.0791
 20
-24.6456
 11
15.0276
 21
-24.6551
  0
LINE
  8
0
 10
15.0276
 20
-24.6551
 11
14.9763
 21
-24.6656
  0
LINE
  8
0
 10
14.9763
 20
-24.6656
 11
14.9251
 21
-24.6769
  0
LINE
  8
0
 10
14.9251
 20
-24.6769
 11
14.8742
 21
-24.6891
  0
LINE
  8
0
 10
14.8742
 20
-24.6891
 11
14.8235
 21
-24.7022
  0
LINE
  8
0
 10
14.8235
 20
-24.7022
 11
14.7731
 21
-24.7162
  0
LINE
  8
0
 10
14.7731
 20
-24.7162
 11
14.7229
 21
-24.7311
  0
LINE
  8
0
 10
14.7229
 20
-24.7311
 11
14.6729
 21
-24.7468
  0
LINE
  8
0
 10
14.6729
 20
-24.7468
 11
14.6233
 21
-24.7634
  0
LINE
  8
0
 10
14.6233
 20
-24.7634
 11
14.5739
 21
-24.7809
  0
LINE
  8
0
 10
14.5739
 20
-24.7809
 11
14.5249
 21
-24.7993
  0
LINE
  8
0
 10
14.5249
 20
-24.7993
 11
14.4762
 21
-24.8184
  0
LINE
  8
0
 10
14.4762
 20
-24.8184
 11
14.4278
 21
-24.8385
  0
LINE
  8
0
 10
14.4278
 20
-24.8385
 11
14.3798
 21
-24.8594
  0
LINE
  8
0
 10
14.3798
 20
-24.8594
 11
14.3321
 21
-24.8811
  0
LINE
  8
0
 10
14.3321
 20
-24.8811
 11
14.2849
 21
-24.9036
  0
LINE
  8
0
 10
14.2849
 20
-24.9036
 11
14.238
 21
-24.927
  0
LINE
  8
0
 10
14.238
 20
-24.927
 11
14.1916
 21
-24.9512
  0
LINE
  8
0
 10
14.1916
 20
-24.9512
 11
14.1456
 21
-24.9761
  0
LINE
  8
0
 10
14.1456
 20
-24.9761
 11
14.1
 21
-25.0019
  0
LINE
  8
0
 10
14.1
 20
-25.0019
 11
14.0549
 21
-25.0285
  0
LINE
  8
0
 10
14.0549
 20
-25.0285
 11
14.0102
 21
-25.0558
  0
LINE
  8
0
 10
14.0102
 20
-25.0558
 11
13.9661
 21
-25.084
  0
LINE
  8
0
 10
13.9661
 20
-25.084
 11
13.9224
 21
-25.1129
  0
LINE
  8
0
 10
13.9224
 20
-25.1129
 11
13.8793
 21
-25.1425
  0
LINE
  8
0
 10
13.8793
 20
-25.1425
 11
13.8366
 21
-25.1729
  0
LINE
  8
0
 10
13.8366
 20
-25.1729
 11
13.7946
 21
-25.2041
  0
LINE
  8
0
 10
13.7946
 20
-25.2041
 11
13.753
 21
-25.236
  0
LINE
  8
0
 10
13.753
 20
-25.236
 11
13.712
 21
-25.2686
  0
LINE
  8
0
 10
13.712
 20
-25.2686
 11
13.6716
 21
-25.3019
  0
LINE
  8
0
 10
13.6716
 20
-25.3019
 11
13.6318
 21
-25.3359
  0
LINE
  8
0
 10
13.6318
 20
-25.3359
 11
13.5926
 21
-25.3706
  0
LINE
  8
0
 10
13.5926
 20
-25.3706
 11
13.554
 21
-25.4059
  0
LINE
  8
0
 10
13.554
 20
-25.4059
 11
13.516
 21
-25.442
  0
LINE
  8
0
 10
13.516
 20
-25.442
 11
13.4787
 21
-25.4787
  0
LINE
  8
0
 10
13.4787
 20
-25.4787
 11
2.47867
 21
-36.4787
  0
LINE
  8
0
 10
2.47867
 20
-36.4787
 11
2.44197
 21
-36.516
  0
LINE
  8
0
 10
2.44197
 20
-36.516
 11
2.40593
 21
-36.554
  0
LINE
  8
0
 10
2.40593
 20
-36.554
 11
2.37056
 21
-36.5926
  0
LINE
  8
0
 10
2.37056
 20
-36.5926
 11
2.33586
 21
-36.6318
  0
LINE
  8
0
 10
2.33586
 20
-36.6318
 11
2.30186
 21
-36.6716
  0
LINE
  8
0
 10
2.30186
 20
-36.6716
 11
2.26855
 21
-36.712
  0
LINE
  8
0
 10
2.26855
 20
-36.712
 11
2.23596
 21
-36.753
  0
LINE
  8
0
 10
2.23596
 20
-36.753
 11
2.20409
 21
-36.7946
  0
LINE
  8
0
 10
2.20409
 20
-36.7946
 11
2.17294
 21
-36.8366
  0
LINE
  8
0
 10
2.17294
 20
-36.8366
 11
2.14253
 21
-36.8793
  0
LINE
  8
0
 10
2.14253
 20
-36.8793
 11
2.11288
 21
-36.9224
  0
LINE
  8
0
 10
2.11288
 20
-36.9224
 11
2.08398
 21
-36.9661
  0
LINE
  8
0
 10
2.08398
 20
-36.9661
 11
2.05585
 21
-37.0102
  0
LINE
  8
0
 10
2.05585
 20
-37.0102
 11
2.02849
 21
-37.0549
  0
LINE
  8
0
 10
2.02849
 20
-37.0549
 11
2.00192
 21
-37.1
  0
LINE
  8
0
 10
2.00192
 20
-37.1
 11
1.97614
 21
-37.1456
  0
LINE
  8
0
 10
1.97614
 20
-37.1456
 11
1.95116
 21
-37.1916
  0
LINE
  8
0
 10
1.95116
 20
-37.1916
 11
1.92697
 21
-37.238
  0
LINE
  8
0
 10
1.92697
 20
-37.238
 11
1.90361
 21
-37.2849
  0
LINE
  8
0
 10
1.90361
 20
-37.2849
 11
1.88107
 21
-37.3321
  0
LINE
  8
0
 10
1.88107
 20
-37.3321
 11
1.85936
 21
-37.3798
  0
LINE
  8
0
 10
1.85936
 20
-37.3798
 11
1.83849
 21
-37.4278
  0
LINE
  8
0
 10
1.83849
 20
-37.4278
 11
1.81844
 21
-37.4762
  0
LINE
  8
0
 10
1.81844
 20
-37.4762
 11
1.79926
 21
-37.5249
  0
LINE
  8
0
 10
1.79926
 20
-37.5249
 11
1.78091
 21
-37.5739
  0
LINE
  8
0
 10
1.78091
 20
-37.5739
 11
1.76344
 21
-37.6233
  0
LINE
  8
0
 10
1.76344
 20
-37.6233
 11
1.74683
 21
-37.6729
  0
LINE
  8
0
 10
1.74683
 20
-37.6729
 11
1.73108
 21
-37.7229
  0
LINE
  8
0
 10
1.73108
 20
-37.7229
 11
1.7162
 21
-37.7731
  0
LINE
  8
0
 10
1.7162
 20
-37.7731
 11
1.70221
 21
-37.8235
  0
LINE
  8
0
 10
1.70221
 20
-37.8235
 11
1.6891
 21
-37.8742
  0
LINE
  8
0
 10
1.6891
 20
-37.8742
 11
1.67688
 21
-37.9251
  0
LINE
  8
0
 10
1.67688
 20
-37.9251
 11
1.66556
 21
-37.9763
  0
LINE
  8
0
 10
1.66556
 20
-37.9763
 11
1.65511
 21
-38.0276
  0
LINE
  8
0
 10
1.65511
 20
-38.0276
 11
1.64557
 21
-38.0791
  0
LINE
  8
0
 10
1.64557
 20
-38.0791
 11
1.63693
 21
-38.1307
  0
LINE
  8
0
 10
1.63693
 20
-38.1307
 11
1.6292
 21
-38.1825
  0
LINE
  8
0
 10
1.6292
 20
-38.1825
 11
1.62236
 21
-38.2344
  0
LINE
  8
0
 10
1.62236
 20
-38.2344
 11
1.61642
 21
-38.2864
  0
LINE
  8
0
 10
1.61642
 20
-38.2864
 11
1.6114
 21
-38.3385
  0
LINE
  8
0
 10
1.6114
 20
-38.3385
 11
1.6073
 21
-38.3907
  0
LINE
  8
0
 10
1.6073
 20
-38.3907
 11
1.60411
 21
-38.443
  0
LINE
  8
0
 10
1.60411
 20
-38.443
 11
1.60182
 21
-38.4953
  0
LINE
  8
0
 10
1.60182
 20
-38.4953
 11
1.60045
 21
-38.5476
  0
LINE
  8
0
 10
1.60045
 20
-38.5476
 11
1.59999
 21
-38.6
  0
LINE
  8
0
 10
1.59999
 20
-38.6
 11
1.60045
 21
-38.6524
  0
LINE
  8
0
 10
1.60045
 20
-38.6524
 11
1.60182
 21
-38.7047
  0
LINE
  8
0
 10
1.60182
 20
-38.7047
 11
1.60411
 21
-38.757
  0
LINE
  8
0
 10
1.60411
 20
-38.757
 11
1.6073
 21
-38.8093
  0
LINE
  8
0
 10
1.6073
 20
-38.8093
 11
1.6114
 21
-38.8615
  0
LINE
  8
0
 10
1.6114
 20
-38.8615
 11
1.61642
 21
-38.9136
  0
LINE
  8
0
 10
1.61642
 20
-38.9136
 11
1.62236
 21
-38.9656
  0
LINE
  8
0
 10
1.62236
 20
-38.9656
 11
1.6292
 21
-39.0175
  0
LINE
  8
0
 10
1.6292
 20
-39.0175
 11
1.63693
 21
-39.0693
  0
LINE
  8
0
 10
1.63693
 20
-39.0693
 11
1.64557
 21
-39.1209
  0
LINE
  8
0
 10
1.64557
 20
-39.1209
 11
1.65511
 21
-39.1724
  0
LINE
  8
0
 10
1.65511
 20
-39.1724
 11
1.66556
 21
-39.2237
  0
LINE
  8
0
 10
1.66556
 20
-39.2237
 11
12.6656
 21
-92.6237
  0
LINE
  8
0
 10
12.6656
 20
-92.6237
 11
12.6769
 21
-92.6749
  0
LINE
  8
0
 10
12.6769
 20
-92.6749
 11
12.6891
 21
-92.7258
  0
LINE
  8
0
 10
12.6891
 20
-92.7258
 11
12.7022
 21
-92.7765
  0
LINE
  8
0
 10
12.7022
 20
-92.7765
 11
12.7162
 21
-92.8269
  0
LINE
  8
0
 10
12.7162
 20
-92.8269
 11
12.7311
 21
-92.8771
  0
LINE
  8
0
 10
12.7311
 20
-92.8771
 11
12.7468
 21
-92.927
  0
LINE
  8
0
 10
12.7468
 20
-92.927
 11
12.7634
 21
-92.9767
  0
LINE
  8
0
 10
12.7634
 20
-92.9767
 11
12.7809
 21
-93.0261
  0
LINE
  8
0
 10
12.7809
 20
-93.0261
 11
12.7993
 21
-93.0751
  0
LINE
  8
0
 10
12.7993
 20
-93.0751
 11
12.8184
 21
-93.1238
  0
LINE
  8
0
 10
12.8184
 20
-93.1238
 11
12.8385
 21
-93.1722
  0
LINE
  8
0
 10
12.8385
 20
-93.1722
 11
12.8594
 21
-93.2202
  0
LINE
  8
0
 10
12.8594
 20
-93.2202
 11
12.8811
 21
-93.2679
  0
LINE
  8
0
 10
12.8811
 20
-93.2679
 11
12.9036
 21
-93.3151
  0
LINE
  8
0
 10
12.9036
 20
-93.3151
 11
12.927
 21
-93.362
  0
LINE
  8
0
 10
12.927
 20
-93.362
 11
12.9512
 21
-93.4084
  0
LINE
  8
0
 10
12.9512
 20
-93.4084
 11
12.9761
 21
-93.4544
  0
LINE
  8
0
 10
12.9761
 20
-93.4544
 11
13.0019
 21
-93.5
  0
LINE
  8
0
 10
13.0019
 20
-93.5
 11
13.0285
 21
-93.5451
  0
LINE
  8
0
 10
13.0285
 20
-93.5451
 11
13.0558
 21
-93.5898
  0
LINE
  8
0
 10
13.0558
 20
-93.5898
 11
13.084
 21
-93.6339
  0
LINE
  8
0
 10
13.084
 20
-93.6339
 11
13.1129
 21
-93.6776
  0
LINE
  8
0
 10
13.1129
 20
-93.6776
 11
13.1425
 21
-93.7207
  0
LINE
  8
0
 10
13.1425
 20
-93.7207
 11
13.1729
 21
-93.7634
  0
LINE
  8
0
 10
13.1729
 20
-93.7634
 11
13.2041
 21
-93.8054
  0
LINE
  8
0
 10
13.2041
 20
-93.8054
 11
13.236
 21
-93.847
  0
LINE
  8
0
 10
13.236
 20
-93.847
 11
13.2686
 21
-93.888
  0
LINE
  8
0
 10
13.2686
 20
-93.888
 11
13.3019
 21
-93.9284
  0
LINE
  8
0
 10
13.3019
 20
-93.9284
 11
13.3359
 21
-93.9682
  0
LINE
  8
0
 10
13.3359
 20
-93.9682
 11
13.3706
 21
-94.0074
  0
LINE
  8
0
 10
13.3706
 20
-94.0074
 11
13.4059
 21
-94.046
  0
LINE
  8
0
 10
13.4059
 20
-94.046
 11
13.442
 21
-94.084
  0
LINE
  8
0
 10
13.442
 20
-94.084
 11
13.4787
 21
-94.1213
  0
LINE
  8
0
 10
13.4787
 20
-94.1213
 11
13.516
 21
-94.158
  0
LINE
  8
0
 10
13.516
 20
-94.158
 11
13.554
 21
-94.1941
  0
LINE
  8
0
 10
13.554
 20
-94.1941
 11
13.5926
 21
-94.2294
  0
LINE
  8
0
 10
13.5926
 20
-94.2294
 11
13.6318
 21
-94.2641
  0
LINE
  8
0
 10
13.6318
 20
-94.2641
 11
13.6716
 21
-94.2981
  0
LINE
  8
0
 10
13.6716
 20
-94.2981
 11
13.712
 21
-94.3314
  0
LINE
  8
0
 10
13.712
 20
-94.3314
 11
13.753
 21
-94.364
  0
LINE
  8
0
 10
13.753
 20
-94.364
 11
13.7946
 21
-94.3959
  0
LINE
  8
0
 10
13.7946
 20
-94.3959
 11
13.8366
 21
-94.427
  0
LINE
  8
0
 10
13.8366
 20
-94.427
 11
13.8793
 21
-94.4575
  0
LINE
  8
0
 10
13.8793
 20
-94.4575
 11
13.9224
 21
-94.4871
  0
LINE
  8
0
 10
13.9224
 20
-94.4871
 11
13.9661
 21
-94.516
  0
LINE
  8
0
 10
13.9661
 20
-94.516
 11
14.0102
 21
-94.5441
  0
LINE
  8
0
 10
14.0102
 20
-94.5441
 11
14.0549
 21
-94.5715
  0
LINE
  8
0
 10
14.0549
 20
-94.5715
 11
14.1
 21
-94.5981
  0
LINE
  8
0
 10
14.1
 20
-94.5981
 11
14.1456
 21
-94.6239
  0
LINE
  8
0
 10
14.1456
 20
-94.6239
 11
14.1916
 21
-94.6488
  0
LINE
  8
0
 10
14.1916
 20
-94.6488
 11
14.238
 21
-94.673
  0
LINE
  8
0
 10
14.238
 20
-94.673
 11
14.2849
 21
-94.6964
  0
LINE
  8
0
 10
14.2849
 20
-94.6964
 11
14.3321
 21
-94.7189
  0
LINE
  8
0
 10
14.3321
 20
-94.7189
 11
14.3798
 21
-94.7406
  0
LINE
  8
0
 10
14.3798
 20
-94.7406
 11
14.4278
 21
-94.7615
  0
LINE
  8
0
 10
14.4278
 20
-94.7615
 11
14.4762
 21
-94.7816
  0
LINE
  8
0
 10
14.4762
 20
-94.7816
 11
14.5249
 21
-94.8007
  0
LINE
  8
0
 10
14.5249
 20
-94.8007
 11
14.5739
 21
-94.8191
  0
LINE
  8
0
 10
14.5739
 20
-94.8191
 11
14.6233
 21
-94.8365
  0
LINE
  8
0
 10
14.6233
 20
-94.8365
 11
14.6729
 21
-94.8532
  0
LINE
  8
0
 10
14.6729
 20
-94.8532
 11
14.7229
 21
-94.8689
  0
LINE
  8
0
 10
14.7229
 20
-94.8689
 11
14.7731
 21
-94.8838
  0
LINE
  8
0
 10
14.7731
 20
-94.8838
 11
14.8235
 21
-94.8978
  0
LINE
  8
0
 10
14.8235
 20
-94.8978
 11
14.8742
 21
-94.9109
  0
LINE
  8
0
 10
14.8742
 20
-94.9109
 11
14.9251
 21
-94.9231
  0
LINE
  8
0
 10
14.9251
 20
-94.9231
 11
14.9763
 21
-94.9344
  0
LINE
  8
0
 10
14.9763
 20
-94.9344
 11
15.0276
 21
-94.9449
  0
LINE
  8
0
 10
15.0276
 20
-94.9449
 11
15.0791
 21
-94.9544
  0
LINE
  8
0
 10
15.0791
 20
-94.9544
 11
15.1307
 21
-94.9631
  0
LINE
  8
0
 10
15.1307
 20
-94.9631
 11
15.1825
 21
-94.9708
  0
LINE
  8
0
 10
15.1825
 20
-94.9708
 11
15.2344
 21
-94.9776
  0
LINE
  8
0
 10
15.2344
 20
-94.9776
 11
15.2864
 21
-94.9836
  0
LINE
  8
0
 10
15.2864
 20
-94.9836
 11
15.3385
 21
-94.9886
  0
LINE
  8
0
 10
15.3385
 20
-94.9886
 11
15.3907
 21
-94.9927
  0
LINE
  8
0
 10
15.3907
 20
-94.9927
 11
15.443
 21
-94.9959
  0
LINE
  8
0
 10
15.443
 20
-94.9959
 11
15.4953
 21
-94.9982
  0
LINE
  8
0
 10
15.4953
 20
-94.9982
 11
15.5476
 21
-94.9995
  0
LINE
  8
0
 10
15.5476
 20
-94.9995
 11
15.6
 21
-95
  0
LINE
  8
0
 10
15.6
 20
-95
 11
62.6
 21
-95
  0
LINE
  8
0
 10
62.6
 20
-95
 11
62.6524
 21
-94.9995
  0
LINE
  8
0
 10
5.04668
 20
-38.2599
 11
12.1177
 21
-31.1888
  0
LINE
  8
0
 10
12.1177
 20
-31.1888
 11
45.3518
 21
-64.4228
  0
LINE
  8
0
 10
45.3518
 20
-64.4228
 11
38.2807
 21
-71.4939
  0
LINE
  8
0
 10
38.2807
 20
-71.4939
 11
5.04668
 21
-38.2599
  0
LINE
  8
0
 10
48.8873
 20
-72.201
 11
51.0086
 21
-70.0797
  0
LINE
  8
0
 10
51.0086
 20
-70.0797
 11
55.2513
 21
-74.3223
  0
LINE
  8
0
 10
55.2513
 20
-74.3223
 11
53.1299
 21
-76.4436
  0
LINE
  8
0
 10
53.1299
 20
-76.4436
 11
48.8873
 21
-72.201
  0
LINE
  8
0
 10
15.6
 20
-92
 11
15.6
 21
-82
  0
LINE
  8
0
 10
15.6
 20
-82
 11
62.6
 21
-82
  0
LINE
  8
0
 10
62.6
 20
-82
 11
62.6
 21
-92
  0
LINE
  8
0
 10
62.6
 20
-92
 11
15.6
 21
-92
  0
ENDSEC
  0
SECTION
  2
OBJECTS
  0
DICTIONARY
  0
ENDSEC
  0
EOF
