<?xml version="1.0" standalone="no"?>
<!DOCTYPE svg PUBLIC "-//W3C//DTD SVG 1.1//EN" "http://www.w3.org/Graphics/SVG/1.1/DTD/svg11.dtd">
<svg width="78mm" height="98mm" viewBox="1 -3 78 98" xmlns="http://www.w3.org/2000/svg" version="1.1">
<title>OpenSCAD Model</title>
<path d="
M 64.4523,67.3995 L 64.5047,67.3982 L 64.557,67.3959 L 64.6093,67.3927 L 64.6615,67.3886 L 64.7136,67.3836
 L 64.7656,67.3776 L 64.8175,67.3708 L 64.8693,67.3631 L 64.9209,67.3544 L 64.9724,67.3449 L 65.0237,67.3344
 L 65.0748,67.3231 L 65.1258,67.3109 L 65.1765,67.2978 L 65.2269,67.2838 L 65.2771,67.2689 L 65.327,67.2532
 L 65.3767,67.2366 L 65.4261,67.2191 L 65.4751,67.2007 L 65.5238,67.1815 L 65.5722,67.1615 L 65.6202,67.1406
 L 65.6678,67.1189 L 65.7151,67.0964 L 65.762,67.073 L 65.8084,67.0488 L 65.8544,67.0238 L 65.9,66.9981
 L 65.9451,66.9715 L 65.9898,66.9441 L 66.0339,66.916 L 66.0776,66.8871 L 66.1207,66.8575 L 66.1633,66.827
 L 66.2054,66.7959 L 66.247,66.764 L 66.288,66.7314 L 66.3284,66.6981 L 66.3682,66.6641 L 66.4074,66.6294
 L 66.446,66.5941 L 66.484,66.558 L 66.5213,66.5213 L 77.5213,55.5213 L 77.558,55.484 L 77.5941,55.446
 L 77.6294,55.4074 L 77.6641,55.3682 L 77.6981,55.3284 L 77.7314,55.2879 L 77.764,55.247 L 77.7959,55.2054
 L 77.827,55.1633 L 77.8575,55.1207 L 77.8871,55.0776 L 77.916,55.0339 L 77.9441,54.9897 L 77.9715,54.9451
 L 77.9981,54.9 L 78.0238,54.8544 L 78.0488,54.8084 L 78.073,54.762 L 78.0964,54.7151 L 78.1189,54.6678
 L 78.1406,54.6202 L 78.1615,54.5722 L 78.1815,54.5238 L 78.2007,54.4751 L 78.2191,54.4261 L 78.2366,54.3767
 L 78.2532,54.327 L 78.2689,54.2771 L 78.2838,54.2269 L 78.2978,54.1765 L 78.3109,54.1258 L 78.3231,54.0748
 L 78.3344,54.0237 L 78.3449,53.9724 L 78.3544,53.9209 L 78.3631,53.8693 L 78.3708,53.8175 L 78.3776,53.7656
 L 78.3836,53.7136 L 78.3886,53.6615 L 78.3927,53.6093 L 78.3959,53.557 L 78.3982,53.5047 L 78.3995,53.4523
 L 78.4,53.4 L 78.3995,53.3476 L 78.3982,53.2953 L 78.3959,53.243 L 78.3927,53.1907 L 78.3886,53.1385
 L 78.3836,53.0864 L 78.3776,53.0344 L 78.3708,52.9825 L 78.3631,52.9307 L 78.3544,52.879 L 78.3449,52.8276
 L 78.3344,52.7763 L 67.3344,-0.623734 L 67.3231,-0.67485 L 67.3109,-0.725754 L 67.2978,-0.776443 L 67.2838,-0.826904
 L 67.2689,-0.877106 L 67.2532,-0.927048 L 67.2366,-0.9767 L 67.2191,-1.02605 L 67.2007,-1.0751 L 67.1815,-1.12381
 L 67.1615,-1.17218 L 67.1406,-1.2202 L 67.1189,-1.26785 L 67.0964,-1.31511 L 67.073,-1.36197 L 67.0488,-1.4084
 L 67.0238,-1.45442 L 66.9981,-1.5 L 66.9715,-1.5451 L 66.9441,-1.58975 L 66.916,-1.63391 L 66.8871,-1.67757
 L 66.8575,-1.72072 L 66.827,-1.76335 L 66.7959,-1.80544 L 66.764,-1.84697 L 66.7314,-1.88795 L 66.6981,-1.92836
 L 66.6641,-1.96817 L 66.6294,-2.00739 L 66.5941,-2.04599 L 66.558,-2.08397 L 66.5213,-2.12131 L 66.484,-2.158
 L 66.446,-2.19405 L 66.4074,-2.22943 L 66.3682,-2.26411 L 66.3284,-2.29813 L 66.288,-2.33144 L 66.247,-2.36403
 L 66.2054,-2.3959 L 66.1633,-2.42705 L 66.1207,-2.45744 L 66.0776,-2.48711 L 66.0339,-2.51601 L 65.9898,-2.54414
 L 65.9451,-2.57149 L 65.9,-2.59807 L 65.8544,-2.62386 L 65.8084,-2.64883 L 65.762,-2.67302 L 65.7151,-2.69638
 L 65.6678,-2.71892 L 65.6202,-2.74063 L 65.5722,-2.76151 L 65.5238,-2.78154 L 65.4751,-2.80074 L 65.4261,-2.81908
 L 65.3767,-2.83655 L 65.327,-2.85316 L 65.2771,-2.86891 L 65.2269,-2.88377 L 65.1765,-2.89777 L 65.1258,-2.91087
 L 65.0748,-2.9231 L 65.0237,-2.93443 L 64.9724,-2.94487 L 64.9209,-2.95442 L 64.8693,-2.96306 L 64.8175,-2.97079
 L 64.7656,-2.97763 L 64.7136,-2.98355 L 64.6615,-2.98857 L 64.6093,-2.99269 L 64.557,-2.99588 L 64.5047,-2.99817
 L 64.4523,-2.99954 L 64.4,-3 L 17.4,-3 L 17.3476,-2.99954 L 17.2953,-2.99817 L 17.243,-2.99588
 L 17.1907,-2.99269 L 17.1385,-2.98857 L 17.0864,-2.98355 L 17.0344,-2.97763 L 16.9825,-2.97079 L 16.9307,-2.96306
 L 16.879,-2.95442 L 16.8276,-2.94487 L 16.7763,-2.93443 L 16.7251,-2.9231 L 16.6742,-2.91087 L 16.6235,-2.89777
 L 16.5731,-2.88377 L 16.5229,-2.86891 L 16.4729,-2.85316 L 16.4233,-2.83655 L 16.3739,-2.81908 L 16.3249,-2.80074
 L 16.2762,-2.78154 L 16.2278,-2.76151 L 16.1798,-2.74063 L 16.1321,-2.71892 L 16.0849,-2.69638 L 16.038,-2.67302
 L 15.9916,-2.64883 L 15.9456,-2.62386 L 15.9,-2.59807 L 15.8549,-2.57149 L 15.8102,-2.54414 L 15.7661,-2.51601
 L 15.7224,-2.48711 L 15.6793,-2.45744 L 15.6366,-2.42705 L 15.5945,-2.3959 L 15.553,-2.36403 L 15.512,-2.33144
 L 15.4716,-2.29813 L 15.4318,-2.26411 L 15.3926,-2.22943 L 15.354,-2.19405 L 15.316,-2.158 L 6.51602,6.44197
 L 6.47867,6.47867 L 6.44197,6.51602 L 6.40593,6.554 L 6.37056,6.59261 L 6.33586,6.63182 L 6.30186,6.67163
 L 6.26855,6.71204 L 6.23596,6.75301 L 6.20409,6.79454 L 6.17294,6.83664 L 6.14253,6.87926 L 6.11288,6.92241
 L 6.08398,6.96608 L 6.05585,7.01024 L 6.02849,7.05487 L 6.00192,7.09999 L 5.97614,7.14557 L 5.95116,7.19157
 L 5.92697,7.23802 L 5.90361,7.28488 L 5.88107,7.33214 L 5.85936,7.37978 L 5.83847,7.4278 L 5.81844,7.47617
 L 5.79926,7.52489 L 5.78091,7.57393 L 5.76344,7.62329 L 5.74683,7.67294 L 5.73108,7.72287 L 5.7162,7.77309
 L 5.70221,7.82353 L 5.6891,7.87422 L 5.67688,7.92514 L 5.66554,7.97626 L 5.65511,8.02757 L 5.64557,8.07904
 L 5.63693,8.13069 L 5.62918,8.18248 L 5.62236,8.23439 L 5.61642,8.28641 L 5.6114,8.33853 L 5.6073,8.39072
 L 5.60411,8.44298 L 5.60182,8.4953 L 5.60045,8.54764 L 5.59999,8.59999 L 5.60045,8.65234 L 5.60182,8.7047
 L 5.60411,8.757 L 5.6073,8.80927 L 5.6114,8.86147 L 5.61642,8.91357 L 5.62236,8.96561 L 5.62918,9.01752
 L 5.63693,9.06929 L 5.64557,9.12094 L 5.65511,9.17242 L 5.66554,9.22372 L 5.67688,9.27484 L 5.6891,9.32576
 L 5.70221,9.37645 L 5.7162,9.42691 L 5.73108,9.47711 L 5.74683,9.52704 L 5.76344,9.57669 L 5.78091,9.62605
 L 5.79926,9.67509 L 5.81844,9.72382 L 5.83847,9.77219 L 5.85936,9.82021 L 5.88107,9.86784 L 5.90361,9.9151
 L 5.92697,9.96196 L 5.95116,10.0084 L 5.97614,10.0544 L 6.00192,10.1 L 6.02849,10.1451 L 6.05585,10.1897
 L 6.08398,10.2339 L 6.11288,10.2776 L 6.14253,10.3207 L 6.17294,10.3633 L 6.20409,10.4054 L 6.23596,10.447
 L 6.26855,10.488 L 6.30186,10.5284 L 6.33586,10.5682 L 6.37056,10.6074 L 6.40593,10.646 L 6.44197,10.684
 L 6.47867,10.7213 L 62.2787,66.5213 L 62.316,66.558 L 62.354,66.5941 L 62.3926,66.6294 L 62.4318,66.6641
 L 62.4716,66.6981 L 62.512,66.7314 L 62.553,66.764 L 62.5945,66.7959 L 62.6366,66.827 L 62.6793,66.8575
 L 62.7224,66.8871 L 62.7661,66.916 L 62.8102,66.9441 L 62.8549,66.9715 L 62.9,66.9981 L 62.9456,67.0238
 L 62.9916,67.0488 L 63.038,67.073 L 63.0849,67.0964 L 63.1321,67.1189 L 63.1798,67.1406 L 63.2278,67.1615
 L 63.2762,67.1815 L 63.3249,67.2007 L 63.3739,67.2191 L 63.4233,67.2366 L 63.4729,67.2532 L 63.5229,67.2689
 L 63.5731,67.2838 L 63.6235,67.2978 L 63.6742,67.3109 L 63.7251,67.3231 L 63.7763,67.3344 L 63.8276,67.3449
 L 63.879,67.3544 L 63.9307,67.3631 L 63.9825,67.3708 L 64.0344,67.3776 L 64.0864,67.3836 L 64.1385,67.3886
 L 64.1907,67.3927 L 64.243,67.3959 L 64.2953,67.3982 L 64.3476,67.3995 L 64.4,67.4 z
M 17.4,10 L 17.4,-0 L 64.4,-0 L 64.4,10 z
M 24.7487,17.6777 L 26.8701,15.5563 L 31.1127,19.799 L 28.9914,21.9203 z
M 34.6482,27.5772 L 41.7193,20.5061 L 74.9533,53.7401 L 67.8822,60.8112 z
M 62.6524,94.9995 L 62.7047,94.9982 L 62.757,94.9959 L 62.8093,94.9927 L 62.8615,94.9886 L 62.9136,94.9836
 L 62.9656,94.9776 L 63.0175,94.9708 L 63.0693,94.9631 L 63.1209,94.9544 L 63.1724,94.9449 L 63.2237,94.9344
 L 63.2748,94.9231 L 63.3258,94.9109 L 63.3764,94.8978 L 63.4269,94.8838 L 63.4771,94.8689 L 63.5271,94.8532
 L 63.5767,94.8365 L 63.6261,94.8191 L 63.6751,94.8007 L 63.7238,94.7816 L 63.7722,94.7615 L 63.8202,94.7406
 L 63.8678,94.7189 L 63.9151,94.6964 L 63.962,94.673 L 64.0084,94.6488 L 64.0544,94.6239 L 64.1,94.5981
 L 64.1451,94.5715 L 64.1898,94.5441 L 64.2339,94.516 L 64.2776,94.4871 L 64.3207,94.4575 L 64.3634,94.427
 L 64.4054,94.3959 L 64.447,94.364 L 64.488,94.3314 L 64.5284,94.2981 L 64.5682,94.2641 L 64.6074,94.2294
 L 64.646,94.1941 L 64.684,94.158 L 73.484,85.558 L 73.5213,85.5213 L 73.558,85.484 L 73.5941,85.446
 L 73.6294,85.4074 L 73.6641,85.3682 L 73.6981,85.3284 L 73.7314,85.288 L 73.764,85.247 L 73.7959,85.2054
 L 73.827,85.1633 L 73.8575,85.1207 L 73.8871,85.0776 L 73.916,85.0339 L 73.9441,84.9898 L 73.9715,84.9451
 L 73.9981,84.9 L 74.0238,84.8544 L 74.0488,84.8084 L 74.073,84.762 L 74.0964,84.7151 L 74.1189,84.6678
 L 74.1406,84.6202 L 74.1615,84.5722 L 74.1815,84.5238 L 74.2007,84.4751 L 74.2191,84.4261 L 74.2366,84.3767
 L 74.2532,84.327 L 74.2689,84.2771 L 74.2838,84.2269 L 74.2978,84.1765 L 74.3109,84.1258 L 74.3231,84.0748
 L 74.3344,84.0237 L 74.3449,83.9724 L 74.3544,83.9209 L 74.3631,83.8693 L 74.3708,83.8175 L 74.3776,83.7656
 L 74.3836,83.7136 L 74.3886,83.6615 L 74.3927,83.6093 L 74.3959,83.557 L 74.3982,83.5047 L 74.3995,83.4523
 L 74.4,83.4 L 74.3995,83.3476 L 74.3982,83.2953 L 74.3959,83.243 L 74.3927,83.1907 L 74.3886,83.1385
 L 74.3836,83.0864 L 74.3776,83.0344 L 74.3708,82.9825 L 74.3631,82.9307 L 74.3544,82.8791 L 74.3449,82.8276
 L 74.3344,82.7763 L 74.3231,82.7251 L 74.3109,82.6742 L 74.2978,82.6235 L 74.2838,82.5731 L 74.2689,82.5229
 L 74.2532,82.4729 L 74.2366,82.4233 L 74.2191,82.3739 L 74.2007,82.3249 L 74.1815,82.2762 L 74.1615,82.2278
 L 74.1406,82.1798 L 74.1189,82.1321 L 74.0964,82.0849 L 74.073,82.038 L 74.0488,81.9916 L 74.0238,81.9456
 L 73.9981,81.9 L 73.9715,81.8549 L 73.9441,81.8102 L 73.916,81.7661 L 73.8871,81.7224 L 73.8575,81.6793
 L 73.827,81.6366 L 73.7959,81.5946 L 73.764,81.553 L 73.7314,81.512 L 73.6981,81.4716 L 73.6641,81.4318
 L 73.6294,81.3926 L 73.5941,81.354 L 73.558,81.316 L 73.5213,81.2787 L 17.7213,25.4787 L 17.684,25.442
 L 17.646,25.4059 L 17.6074,25.3706 L 17.5682,25.3359 L 17.5284,25.3019 L 17.488,25.2686 L 17.447,25.236
 L 17.4054,25.2041 L 17.3634,25.1729 L 17.3207,25.1425 L 17.2776,25.1129 L 17.2339,25.084 L 17.1898,25.0558
 L 17.1451,25.0285 L 17.1,25.0019 L 17.0544,24.9761 L 17.0084,24.9512 L 16.962,24.927 L 16.9151,24.9036
 L 16.8678,24.8811 L 16.8202,24.8594 L 16.7722,24.8385 L 16.7238,24.8184 L 16.6751,24.7993 L 16.6261,24.7809
 L 16.5767,24.7634 L 16.527,24.7468 L 16.4771,24.7311 L 16.4269,24.7162 L 16.3764,24.7022 L 16.3258,24.6891
 L 16.2748,24.6769 L 16.2237,24.6656 L 16.1724,24.6551 L 16.1209,24.6456 L 16.0693,24.6369 L 16.0175,24.6292
 L 15.9656,24.6224 L 15.9136,24.6164 L 15.8615,24.6114 L 15.8093,24.6073 L 15.757,24.6041 L 15.7047,24.6018
 L 15.6523,24.6004 L 15.6,24.6 L 15.5476,24.6004 L 15.4953,24.6018 L 15.443,24.6041 L 15.3907,24.6073
 L 15.3385,24.6114 L 15.2864,24.6164 L 15.2344,24.6224 L 15.1825,24.6292 L 15.1307,24.6369 L 15.0791,24.6456
 L 15.0276,24.6551 L 14.9763,24.6656 L 14.9251,24.6769 L 14.8742,24.6891 L 14.8235,24.7022 L 14.7731,24.7162
 L 14.7229,24.7311 L 14.6729,24.7468 L 14.6233,24.7634 L 14.5739,24.7809 L 14.5249,24.7993 L 14.4762,24.8184
 L 14.4278,24.8385 L 14.3798,24.8594 L 14.3321,24.8811 L 14.2849,24.9036 L 14.238,24.927 L 14.1916,24.9512
 L 14.1456,24.9761 L 14.1,25.0019 L 14.0549,25.0285 L 14.0102,25.0558 L 13.9661,25.084 L 13.9224,25.1129
 L 13.8793,25.1425 L 13.8366,25.1729 L 13.7946,25.2041 L 13.753,25.236 L 13.712,25.2686 L 13.6716,25.3019
 L 13.6318,25.3359 L 13.5926,25.3706 L 13.554,25.4059 L 13.516,25.442 L 13.4787,25.4787 L 2.47867,36.4787
 L 2.44197,36.516 L 2.40593,36.554 L 2.37056,36.5926 L 2.33586,36.6318 L 2.30186,36.6716 L 2.26855,36.712
 L 2.23596,36.753 L 2.20409,36.7946 L 2.17294,36.8366 L 2.14253,36.8793 L 2.11288,36.9224 L 2.08398,36.9661
 L 2.05585,37.0102 L 2.02849,37.0549 L 2.00192,37.1 L 1.97614,37.1456 L 1.95116,37.1916 L 1.92697,37.238
 L 1.90361,37.2849 L 1.88107,37.3321 L 1.85936,37.3798 L 1.83849,37.4278 L 1.81844,37.4762 L 1.79926,37.5249
 L 1.78091,37.5739 L 1.76344,37.6233 L 1.74683,37.6729 L 1.73108,37.7229 L 1.7162,37.7731 L 1.70221,37.8235
 L 1.6891,37.8742 L 1.67688,37.9251 L 1.66556,37.9763 L 1.65511,38.0276 L 1.64557,38.0791 L 1.63693,38.1307
 L 1.6292,38.1825 L 1.62236,38.2344 L 1.61642,38.2864 L 1.6114,38.3385 L 1.6073,38.3907 L 1.60411,38.443
 L 1.60182,38.4953 L 1.60045,38.5476 L 1.59999,38.6 L 1.60045,38.6524 L 1.60182,38.7047 L 1.60411,38.757
 L 1.6073,38.8093 L 1.6114,38.8615 L 1.61642,38.9136 L 1.62236,38.9656 L 1.6292,39.0175 L 1.63693,39.0693
 L 1.64557,39.1209 L 1.65511,39.1724 L 1.66556,39.2237 L 12.6656,92.6237 L 12.6769,92.6749 L 12.6891,92.7258
 L 12.7022,92.7765 L 12.7162,92.8269 L 12.7311,92.8771 L 12.7468,92.927 L 12.7634,92.9767 L 12.7809,93.0261
 L 12.7993,93.0751 L 12.8184,93.1238 L 12.8385,93.1722 L 12.8594,93.2202 L 12.8811,93.2679 L 12.9036,93.3151
 L 12.927,93.362 L 12.9512,93.4084 L 12.9761,93.4544 L 13.0019,93.5 L 13.0285,93.5451 L 13.0558,93.5898
 L 13.084,93.6339 L 13.1129,93.6776 L 13.1425,93.7207 L 13.1729,93.7634 L 13.2041,93.8054 L 13.236,93.847
 L 13.2686,93.888 L 13.3019,93.9284 L 13.3359,93.9682 L 13.3706,94.0074 L 13.4059,94.046 L 13.442,94.084
 L 13.4787,94.1213 L 13.516,94.158 L 13.554,94.1941 L 13.5926,94.2294 L 13.6318,94.2641 L 13.6716,94.2981
 L 13.712,94.3314 L 13.753,94.364 L 13.7946,94.3959 L 13.8366,94.427 L 13.8793,94.4575 L 13.9224,94.4871
 L 13.9661,94.516 L 14.0102,94.5441 L 14.0549,94.5715 L 14.1,94.5981 L 14.1456,94.6239 L 14.1916,94.6488
 L 14.238,94.673 L 14.2849,94.6964 L 14.3321,94.7189 L 14.3798,94.7406 L 14.4278,94.7615 L 14.4762,94.7816
 L 14.5249,94.8007 L 14.5739,94.8191 L 14.6233,94.8365 L 14.6729,94.8532 L 14.7229,94.8689 L 14.7731,94.8838
 L 14.8235,94.8978 L 14.8742,94.9109 L 14.9251,94.9231 L 14.9763,94.9344 L 15.0276,94.9449 L 15.0791,94.9544
 L 15.1307,94.9631 L 15.1825,94.9708 L 15.2344,94.9776 L 15.2864,94.9836 L 15.3385,94.9886 L 15.3907,94.9927
 L 15.443,94.9959 L 15.4953,94.9982 L 15.5476,94.9995 L 15.6,95 L 62.6,95 z
M 5.04668,38.2599 L 12.1177,31.1888 L 45.3518,64.4228 L 38.2807,71.4939 z
M 48.8873,72.201 L 51.0086,70.0797 L 55.2513,74.3223 L 53.1299,76.4436 z
M 15.6,92 L 15.6,82 L 62.6,82 L 62.6,92 z
" stroke="black" fill="lightgray" stroke-width="0.5"/>
</svg>
